<svg width="103" height="103" viewBox="0 0 103 103" fill="none" xmlns="http://www.w3.org/2000/svg">
  <circle cx="51.5" cy="51.5" r="51.5" fill="white"/>
  <circle opacity="0.2" cx="51.5" cy="51.5" r="39.5" fill="#F5365C"/>
  <circle cx="51.3333" cy="51.5001" r="26.3333" fill="#F5365C"/>
  <path fill-rule="evenodd" clip-rule="evenodd" d="M51.2696 36C49.3764 36 47.8789 37.603 48.0077 39.4919L49.1336 56.0046C49.2102 57.1279 50.1437 58 51.2696 58C52.3956 58 53.3291 57.1279 53.4057 56.0046L54.5316 39.4919C54.6603 37.603 53.1629 36 51.2696 36ZM51.2696 62C49.8889 62 48.7696 63.1193 48.7696 64.5C48.7696 65.8807 49.8889 67 51.2696 67C52.6504 67 53.7696 65.8807 53.7696 64.5C53.7696 63.1193 52.6504 62 51.2696 62Z" fill="white"/>
</svg>
