<svg width="250" height="222" viewBox="0 0 250 222" fill="none" xmlns="http://www.w3.org/2000/svg">
<g opacity="0.05">
<mask id="mask0_14_1162" style="mask-type:alpha" maskUnits="userSpaceOnUse" x="-61" y="-50" width="287" height="243">
<path d="M208.693 132.381C208.524 132.658 208.351 132.953 208.179 133.231C173.862 188.881 101.277 209.468 45.4035 175.847C-5.2463 138.51 -9.41167 99.999 -11.5678 70.2541C-13.6494 41.465 -13.8478 20.8818 -52.471 17.5113C-65.5094 16.3732 -61.2837 3.35103 -52.4325 -0.904921C17.4226 -34.1146 97.6234 -74.5023 169.263 -29.5329C197.283 -11.8283 215.654 15.467 222.517 45.3235C229.123 74.0629 225.065 105.172 208.693 132.381ZM72.7759 132.241C104.497 151.328 145.686 141.088 164.769 109.362C183.859 77.6432 173.617 36.4547 141.894 17.3621C110.176 -1.72553 68.9869 8.51454 49.8999 40.2356C40.5759 55.7247 38.251 73.4788 42.0048 89.8096C45.9352 106.921 56.5428 122.472 72.7759 132.241Z" fill="white"/>
</mask>
<g mask="url(#mask0_14_1162)">
<path d="M208.693 132.381C208.524 132.658 208.351 132.953 208.18 133.231C173.863 188.881 101.277 209.468 45.4039 175.847C-5.24593 138.51 -9.4113 99.999 -11.5674 70.2541C-13.6491 41.465 -13.8474 20.8818 -52.4706 17.5113C-65.509 16.3732 -61.2834 3.35103 -52.4322 -0.904921C17.4229 -34.1146 97.6238 -74.5023 169.263 -29.5329C197.283 -11.8283 215.655 15.467 222.518 45.3235C229.123 74.0629 225.065 105.172 208.693 132.381ZM72.7762 132.241C104.497 151.328 145.686 141.088 164.769 109.362C183.86 77.6432 173.617 36.4547 141.895 17.3621C110.176 -1.72553 68.9873 8.51454 49.9003 40.2356C40.5763 55.7247 38.2514 73.4788 42.0051 89.8096C45.9355 106.921 56.5431 122.472 72.7762 132.241Z" fill="#007BB5"/>
</g>
<path fill-rule="evenodd" clip-rule="evenodd" d="M93.6976 24.0014C66.1356 31.3589 49.7546 59.6673 57.1121 87.2293C64.4696 114.791 92.778 131.172 120.34 123.815C147.902 116.457 164.283 88.1489 156.926 60.5869C149.568 33.025 121.26 16.6439 93.6976 24.0014Z" fill="#484948"/>
</g>
</svg>
