<svg width="183" height="183" viewBox="0 0 183 183" fill="none" xmlns="http://www.w3.org/2000/svg">
  <circle cx="91.5" cy="91.5" r="91.5" fill="#E9ECEF"/>
  <path d="M91.9519 34C81.4069 34 66.8438 37.0403 60.8178 39.574C54.7918 42.1076 50.7745 44.6412 49.5192 50.9751L45 86.0891V134.474H52.7832V142.061C52.7832 151.313 66.1999 151.313 66.1999 142.061V134.474H90.9695H91.0481H116.8V142.061C116.8 151.313 130.217 151.313 130.217 142.061V134.474H138V86.0891L133.481 50.9751C132.225 44.6412 128.208 42.1076 122.182 39.574C116.156 37.0403 101.593 34 91.0481 34" fill="url(#paint0_linear_3_2192)"/>
  <path d="M123.822 119.351C127.41 119.351 130.319 116.441 130.319 112.853C130.319 109.264 127.41 106.354 123.822 106.354C120.234 106.354 117.324 109.264 117.324 112.853C117.324 116.441 120.234 119.351 123.822 119.351Z" fill="white"/>
  <path d="M59.2016 119.351C55.6133 119.351 52.7041 116.441 52.7041 112.853C52.7041 109.264 55.6133 106.354 59.2016 106.354C62.7899 106.354 65.6993 109.264 65.6993 112.853C65.6993 116.441 62.7899 119.351 59.2016 119.351Z" fill="white"/>
  <path d="M91.0089 48.5756H72.1957C68.3931 48.5756 68.3931 42.8721 72.1957 42.8721H91.0552H110.827C114.63 42.8721 114.63 48.5756 110.827 48.5756H91.0089Z" fill="white"/>
  <path d="M91.0088 54.334H61.9444C57.9276 54.334 56.8782 56.3749 56.3906 59.4708L52.8393 84.9519C52.5081 87.3942 53.2145 89.8186 56.5889 89.8186H91.0551H126.434C129.808 89.8186 130.514 87.3942 130.183 84.9519L126.632 59.4708C126.144 56.3749 125.095 54.334 121.078 54.334H91.0088Z" fill="white"/>
  <defs>
    <linearGradient id="paint0_linear_3_2192" x1="91.5" y1="149" x2="91.5" y2="34" gradientUnits="userSpaceOnUse">
      <stop stop-color="#44ADE2"/>
      <stop offset="1" stop-color="#0087CC"/>
    </linearGradient>
  </defs>
</svg>
