<svg width="36" height="36" viewBox="0 0 36 36" fill="none" xmlns="http://www.w3.org/2000/svg">
  <circle opacity="0.2" cx="18" cy="18" r="18" fill="url(#paint0_linear_81_6624)"/>
  <circle cx="18" cy="18" r="12" fill="url(#paint1_linear_81_6624)"/>
  <path d="M17.6 11C16.1148 11 14.6904 11.59 13.6402 12.6402C12.59 13.6904 12 15.1148 12 16.6C12 20.338 16.305 25 17.6 25C18.895 25 23.2 20.338 23.2 16.6C23.2 15.1148 22.61 13.6904 21.5598 12.6402C20.5096 11.59 19.0852 11 17.6 11ZM17.6 19.4C17.0462 19.4 16.5049 19.2358 16.0444 18.9281C15.5839 18.6204 15.2251 18.1831 15.0131 17.6715C14.8012 17.1599 14.7458 16.5969 14.8538 16.0537C14.9618 15.5106 15.2285 15.0117 15.6201 14.6201C16.0117 14.2285 16.5106 13.9618 17.0537 13.8538C17.5969 13.7458 18.1599 13.8012 18.6715 14.0131C19.1831 14.2251 19.6204 14.5839 19.9281 15.0444C20.2358 15.5049 20.4 16.0462 20.4 16.6C20.4 17.3426 20.105 18.0548 19.5799 18.5799C19.0548 19.105 18.3426 19.4 17.6 19.4Z" fill="white"/>
  <defs>
    <linearGradient id="paint0_linear_81_6624" x1="18" y1="36" x2="18" y2="0" gradientUnits="userSpaceOnUse">
      <stop stop-color="#44ADE2"/>
      <stop offset="1" stop-color="#0087CC"/>
    </linearGradient>
    <linearGradient id="paint1_linear_81_6624" x1="18" y1="30" x2="18" y2="6" gradientUnits="userSpaceOnUse">
      <stop stop-color="#44ADE2"/>
      <stop offset="1" stop-color="#0087CC"/>
    </linearGradient>
  </defs>
</svg>
