<svg width="103" height="103" viewBox="0 0 103 103" fill="none" xmlns="http://www.w3.org/2000/svg">
  <circle cx="51.5" cy="51.5" r="51.5" fill="white"/>
  <circle opacity="0.2" cx="51.5" cy="51.5" r="39.5" fill="url(#paint0_linear_102_6747)"/>
  <circle cx="51.5003" cy="51.5001" r="26.3333" fill="url(#paint1_linear_102_6747)"/>
  <path d="M50.6219 36.1389C47.3627 36.1389 44.237 37.4336 41.9323 39.7382C39.6277 42.0429 38.333 45.1686 38.333 48.4278C38.333 56.6306 47.7801 66.8611 50.6219 66.8611C53.4637 66.8611 62.9108 56.6306 62.9108 48.4278C62.9108 45.1686 61.6161 42.0429 59.3115 39.7382C57.0068 37.4336 53.8811 36.1389 50.6219 36.1389ZM50.6219 54.5723C49.4066 54.5723 48.2187 54.2119 47.2082 53.5367C46.1978 52.8616 45.4102 51.9019 44.9452 50.7792C44.4801 49.6564 44.3584 48.421 44.5955 47.2291C44.8326 46.0372 45.4178 44.9423 46.2771 44.083C47.1364 43.2237 48.2313 42.6385 49.4232 42.4014C50.6151 42.1643 51.8505 42.286 52.9733 42.7511C54.096 43.2161 55.0557 44.0037 55.7308 45.0141C56.406 46.0246 56.7663 47.2125 56.7663 48.4278C56.7663 50.0574 56.119 51.6203 54.9667 52.7726C53.8144 53.9249 52.2515 54.5722 50.6219 54.5723Z" fill="white"/>
  <defs>
    <linearGradient id="paint0_linear_102_6747" x1="51.5" y1="91" x2="51.5" y2="12" gradientUnits="userSpaceOnUse">
      <stop stop-color="#44ADE2"/>
      <stop offset="1" stop-color="#0087CC"/>
    </linearGradient>
    <linearGradient id="paint1_linear_102_6747" x1="51.5003" y1="77.8334" x2="51.5003" y2="25.1667" gradientUnits="userSpaceOnUse">
      <stop stop-color="#44ADE2"/>
      <stop offset="1" stop-color="#0087CC"/>
    </linearGradient>
  </defs>
</svg>
