<svg width="103" height="103" viewBox="0 0 103 103" fill="none" xmlns="http://www.w3.org/2000/svg">
  <circle cx="51.5" cy="51.5" r="51.5" fill="white"/>
  <circle opacity="0.2" cx="51.5" cy="51.5" r="39.5" fill="url(#paint0_linear_150_7498)"/>
  <circle cx="51.3333" cy="51.5001" r="26.3333" fill="url(#paint1_linear_150_7498)"/>
  <path d="M50.4362 57.9458C49.9545 57.9458 49.5578 57.7733 49.2461 57.4284C48.9627 57.0835 48.821 56.6092 48.821 56.0056C48.821 54.4247 49.1044 53.0881 49.6711 51.9958C50.2379 50.9036 51.0597 49.7107 52.1365 48.4172C52.9866 47.3825 53.61 46.5202 54.0067 45.8303C54.4034 45.1405 54.6018 44.3644 54.6018 43.5021C54.6018 42.5535 54.2476 41.8062 53.5391 41.2601C52.8591 40.6852 51.9239 40.3978 50.7338 40.3978C49.7136 40.3978 48.736 40.6277 47.8009 41.0876C46.8658 41.5188 45.7748 42.1511 44.528 42.9847C43.8195 43.3871 43.2386 43.5883 42.7852 43.5883C42.3035 43.5883 41.8784 43.3727 41.5101 42.9416C41.17 42.4817 41 41.9499 41 41.3463C41 40.5128 41.34 39.8373 42.0201 39.3199C43.2103 38.2851 44.613 37.4803 46.2282 36.9054C47.8434 36.3018 49.4728 36 51.1163 36C52.8449 36 54.3751 36.3018 55.7069 36.9054C57.0671 37.509 58.1156 38.3426 58.8523 39.4061C59.6174 40.4696 60 41.6912 60 43.0709C60 44.5656 59.6458 45.8734 58.9374 46.9944C58.2289 48.0867 57.1946 49.3227 55.8345 50.7024C54.6726 51.9096 53.7942 52.93 53.1991 53.7636C52.6324 54.5684 52.2781 55.4882 52.1365 56.523C52.0515 56.9828 51.8531 57.3421 51.5414 57.6008C51.258 57.8308 50.8896 57.9458 50.4362 57.9458ZM50.5213 67C49.6145 67 48.8635 66.6982 48.2685 66.0946C47.6734 65.4622 47.3758 64.6861 47.3758 63.7663C47.3758 62.8465 47.6734 62.0848 48.2685 61.4812C48.8635 60.8489 49.6145 60.5327 50.5213 60.5327C51.428 60.5327 52.179 60.8489 52.774 61.4812C53.3691 62.0848 53.6667 62.8465 53.6667 63.7663C53.6667 64.6861 53.355 65.4622 52.7315 66.0946C52.1365 66.6982 51.3997 67 50.5213 67Z" fill="white"/>
  <defs>
    <linearGradient id="paint0_linear_150_7498" x1="51.5" y1="91" x2="51.5" y2="12" gradientUnits="userSpaceOnUse">
      <stop stop-color="#44ADE2"/>
      <stop offset="1" stop-color="#0087CC"/>
    </linearGradient>
    <linearGradient id="paint1_linear_150_7498" x1="51.3333" y1="77.8334" x2="51.3333" y2="25.1667" gradientUnits="userSpaceOnUse">
      <stop stop-color="#44ADE2"/>
      <stop offset="1" stop-color="#0087CC"/>
    </linearGradient>
  </defs>
</svg>
