<svg width="18" height="20" viewBox="0 0 18 20" fill="none" xmlns="http://www.w3.org/2000/svg">
<path d="M16.0207 12.5003C16.675 11.2711 17.0162 9.8995 17.014 8.50698C17.014 3.80863 13.2054 0 8.507 0C3.80864 0 1.24791e-05 3.80863 1.24791e-05 8.50698C-0.00343116 10.5138 0.70594 12.4566 2.00166 13.989L2.01166 14.0015C2.01517 14.0045 2.01817 14.0085 2.02067 14.0115H2.00166L7.0498 19.3709C7.23694 19.5695 7.46272 19.7278 7.71326 19.836C7.96381 19.9442 8.23384 20 8.50675 20C8.77965 20 9.04968 19.9442 9.30023 19.836C9.55078 19.7278 9.77656 19.5695 9.96369 19.3709L15.0123 14.0115H14.9933L15.0013 14.002L15.0023 14.001C15.0384 13.958 15.0744 13.9149 15.1099 13.8709C15.457 13.4443 15.762 12.9856 16.0207 12.5003ZM8.5095 11.7592C7.7132 11.7592 6.94951 11.4428 6.38644 10.8798C5.82336 10.3167 5.50703 9.55299 5.50703 8.75669C5.50703 7.96039 5.82336 7.1967 6.38644 6.63363C6.94951 6.07055 7.7132 5.75422 8.5095 5.75422C9.3058 5.75422 10.0695 6.07055 10.6326 6.63363C11.1956 7.1967 11.512 7.96039 11.512 8.75669C11.512 9.55299 11.1956 10.3167 10.6326 10.8798C10.0695 11.4428 9.3058 11.7592 8.5095 11.7592Z" fill="#F18F01"/>
</svg>
