<svg width="50" height="50" viewBox="0 0 50 50" fill="none" xmlns="http://www.w3.org/2000/svg">
    <circle cx="25" cy="25" r="25" fill="#EEEEEE"/>
    <path d="M29.9467 25.9465C31.2539 24.9181 32.208 23.5077 32.6763 21.9118C33.1446 20.3158 33.1039 18.6135 32.5597 17.0418C32.0155 15.4701 30.995 14.107 29.6401 13.1423C28.2852 12.1776 26.6633 11.6592 25 11.6592C23.3367 11.6592 21.7148 12.1776 20.3599 13.1423C19.005 14.107 17.9845 15.4701 17.4403 17.0418C16.8961 18.6135 16.8553 20.3158 17.3237 21.9118C17.792 23.5077 18.7461 24.9181 20.0533 25.9465C17.8134 26.8439 15.859 28.3323 14.3985 30.2531C12.938 32.1738 12.0261 34.4549 11.76 36.8532C11.7407 37.0283 11.7562 37.2054 11.8054 37.3746C11.8546 37.5437 11.9366 37.7015 12.0468 37.8389C12.2694 38.1165 12.593 38.2943 12.9467 38.3332C13.3003 38.3721 13.6549 38.2689 13.9324 38.0464C14.21 37.8238 14.3878 37.5001 14.4267 37.1465C14.7194 34.5401 15.9622 32.1329 17.9176 30.3849C19.873 28.6369 22.4039 27.6705 25.0267 27.6705C27.6495 27.6705 30.1803 28.6369 32.1357 30.3849C34.0911 32.1329 35.3339 34.5401 35.6267 37.1465C35.6629 37.4741 35.8192 37.7767 36.0655 37.9959C36.3117 38.215 36.6304 38.3352 36.96 38.3332H37.1067C37.4562 38.293 37.7756 38.1162 37.9954 37.8415C38.2152 37.5668 38.3175 37.2163 38.28 36.8665C38.0127 34.4614 37.0958 32.1745 35.6278 30.2508C34.1598 28.3271 32.1959 26.8391 29.9467 25.9465ZM25 24.9998C23.9452 24.9998 22.914 24.687 22.037 24.101C21.1599 23.515 20.4763 22.682 20.0726 21.7075C19.669 20.7329 19.5634 19.6606 19.7691 18.626C19.9749 17.5915 20.4829 16.6412 21.2288 15.8953C21.9746 15.1494 22.9249 14.6414 23.9595 14.4357C24.9941 14.2299 26.0664 14.3355 27.041 14.7392C28.0155 15.1428 28.8485 15.8264 29.4345 16.7035C30.0205 17.5805 30.3333 18.6117 30.3333 19.6665C30.3333 21.081 29.7714 22.4376 28.7712 23.4377C27.771 24.4379 26.4145 24.9998 25 24.9998Z" fill="#C8C8C8"/>
</svg>
