<svg width="98" height="104" viewBox="0 0 98 104" fill="none" xmlns="http://www.w3.org/2000/svg">
<g filter="url(#filter0_dd_336_4157)">
<circle cx="52" cy="39" r="30" fill="white"/>
</g>
<path d="M44.56 40.0004C44.78 40.0004 45.01 39.9304 45.23 39.8804C45.6755 39.7822 46.1134 39.6518 46.54 39.4904C47.0039 39.3216 47.5139 39.3304 47.9717 39.515C48.4296 39.6996 48.8029 40.047 49.02 40.4904L49.24 40.9404C50.214 40.3985 51.109 39.7256 51.9 38.9404C52.6853 38.1494 53.3582 37.2544 53.9 36.2804L53.48 36.0004C53.0367 35.7833 52.6892 35.4099 52.5046 34.952C52.32 34.4942 52.3112 33.9843 52.48 33.5204C52.6388 33.0928 52.7691 32.6552 52.87 32.2104C52.92 31.9904 52.96 31.7604 52.99 31.5304C53.1115 30.826 53.4804 30.1881 54.0304 29.7316C54.5804 29.2751 55.2753 29.03 55.99 29.0404H58.99C59.421 29.0363 59.8478 29.1252 60.2413 29.3009C60.6349 29.4766 60.9859 29.7351 61.2706 30.0586C61.5553 30.3822 61.7669 30.7634 61.891 31.1761C62.0152 31.5888 62.0489 32.0234 61.99 32.4504C61.4573 36.6397 59.544 40.5322 56.5524 43.513C53.5607 46.4938 49.6613 48.3929 45.47 48.9104H45.09C44.3526 48.9114 43.6406 48.6409 43.09 48.1504C42.7737 47.8674 42.5209 47.5205 42.3486 47.1327C42.1762 46.7448 42.0881 46.3248 42.09 45.9004V42.9004C42.1023 42.2057 42.3552 41.5369 42.8057 41.008C43.2561 40.4791 43.8762 40.123 44.56 40.0004ZM44.06 46.0004C44.0602 46.1423 44.0906 46.2827 44.1492 46.412C44.2079 46.5413 44.2934 46.6566 44.4 46.7504C44.5118 46.8468 44.6424 46.9189 44.7836 46.962C44.9248 47.005 45.0735 47.0181 45.22 47.0004C48.9651 46.5202 52.4438 44.8068 55.1073 42.1306C57.7708 39.4545 59.4676 35.9677 59.93 32.2204C59.9459 32.0739 59.932 31.9257 59.889 31.7847C59.8461 31.6438 59.775 31.513 59.68 31.4004C59.5863 31.2937 59.471 31.2082 59.3416 31.1496C59.2123 31.0909 59.072 31.0605 58.93 31.0604H55.93C55.6975 31.0552 55.4704 31.1312 55.2879 31.2754C55.1054 31.4196 54.9788 31.6229 54.93 31.8504C54.89 32.1237 54.84 32.3937 54.78 32.6604C54.6645 33.1875 54.5108 33.7055 54.32 34.2104L55.72 34.8604C55.8397 34.9153 55.9474 34.9933 56.0369 35.09C56.1263 35.1866 56.1958 35.3 56.2414 35.4236C56.2869 35.5471 56.3075 35.6785 56.3022 35.8101C56.2968 35.9417 56.2655 36.0709 56.21 36.1904C54.7708 39.2731 52.2928 41.7512 49.21 43.1904C48.9666 43.2904 48.6935 43.2904 48.45 43.1904C48.3253 43.1457 48.2107 43.0768 48.1129 42.9875C48.015 42.8983 47.9359 42.7905 47.88 42.6704L47.26 41.2704C46.7431 41.4552 46.2154 41.6088 45.68 41.7304C45.4134 41.7904 45.1434 41.8404 44.87 41.8804C44.6426 41.9291 44.4393 42.0557 44.2951 42.2382C44.1509 42.4207 44.0748 42.6478 44.08 42.8804L44.06 46.0004Z" fill="#23A4DE"/>
<defs>
<filter id="filter0_dd_336_4157" x="0" y="0" width="104" height="104" filterUnits="userSpaceOnUse" color-interpolation-filters="sRGB">
<feFlood flood-opacity="0" result="BackgroundImageFix"/>
<feColorMatrix in="SourceAlpha" type="matrix" values="0 0 0 0 0 0 0 0 0 0 0 0 0 0 0 0 0 0 127 0" result="hardAlpha"/>
<feMorphology radius="8" operator="erode" in="SourceAlpha" result="effect1_dropShadow_336_4157"/>
<feOffset dy="8"/>
<feGaussianBlur stdDeviation="8"/>
<feColorMatrix type="matrix" values="0 0 0 0 0 0 0 0 0 0 0 0 0 0 0 0 0 0 0.3 0"/>
<feBlend mode="normal" in2="BackgroundImageFix" result="effect1_dropShadow_336_4157"/>
<feColorMatrix in="SourceAlpha" type="matrix" values="0 0 0 0 0 0 0 0 0 0 0 0 0 0 0 0 0 0 127 0" result="hardAlpha"/>
<feMorphology radius="5" operator="erode" in="SourceAlpha" result="effect2_dropShadow_336_4157"/>
<feOffset dy="13"/>
<feGaussianBlur stdDeviation="13.5"/>
<feColorMatrix type="matrix" values="0 0 0 0 0.196078 0 0 0 0 0.196078 0 0 0 0 0.364706 0 0 0 0.25 0"/>
<feBlend mode="normal" in2="effect1_dropShadow_336_4157" result="effect2_dropShadow_336_4157"/>
<feBlend mode="normal" in="SourceGraphic" in2="effect2_dropShadow_336_4157" result="shape"/>
</filter>
</defs>
</svg>
