<svg width="32" height="32" viewBox="0 0 32 32" fill="none" xmlns="http://www.w3.org/2000/svg">
    <path d="M10.6666 14.6667L12.6666 8.66675H24.6666L26.6666 14.6667M24.6666 21.3334C24.1362 21.3334 23.6275 21.1227 23.2524 20.7476C22.8774 20.3726 22.6666 19.8638 22.6666 19.3334C22.6666 18.803 22.8774 18.2943 23.2524 17.9192C23.6275 17.5441 24.1362 17.3334 24.6666 17.3334C25.1971 17.3334 25.7058 17.5441 26.0809 17.9192C26.4559 18.2943 26.6666 18.803 26.6666 19.3334C26.6666 19.8638 26.4559 20.3726 26.0809 20.7476C25.7058 21.1227 25.1971 21.3334 24.6666 21.3334ZM12.6666 21.3334C12.1362 21.3334 11.6275 21.1227 11.2524 20.7476C10.8774 20.3726 10.6666 19.8638 10.6666 19.3334C10.6666 18.803 10.8774 18.2943 11.2524 17.9192C11.6275 17.5441 12.1362 17.3334 12.6666 17.3334C13.1971 17.3334 13.7058 17.5441 14.0809 17.9192C14.4559 18.2943 14.6666 18.803 14.6666 19.3334C14.6666 19.8638 14.4559 20.3726 14.0809 20.7476C13.7058 21.1227 13.1971 21.3334 12.6666 21.3334ZM26.56 8.00008C26.28 7.20008 25.52 6.66675 24.6666 6.66675H12.6666C11.8133 6.66675 11.0533 7.20008 10.7733 8.00008L7.99998 16.0001V26.6667C7.99998 27.0204 8.14046 27.3595 8.3905 27.6096C8.64055 27.8596 8.97969 28.0001 9.33331 28.0001H10.6666C11.0203 28.0001 11.3594 27.8596 11.6095 27.6096C11.8595 27.3595 12 27.0204 12 26.6667V25.3334H25.3333V26.6667C25.3333 27.0204 25.4738 27.3595 25.7238 27.6096C25.9739 27.8596 26.313 28.0001 26.6666 28.0001H28C28.3536 28.0001 28.6927 27.8596 28.9428 27.6096C29.1928 27.3595 29.3333 27.0204 29.3333 26.6667V16.0001L26.56 8.00008ZM19.8933 4.00008C19.6133 3.20008 18.8533 2.66675 18 2.66675H5.99998C5.14665 2.66675 4.38665 3.20008 4.10665 4.00008L1.33331 12.0001V22.6667C1.33331 23.0204 1.47379 23.3595 1.72384 23.6096C1.97389 23.8596 2.31302 24.0001 2.66665 24.0001H3.99998C4.3536 24.0001 4.69274 23.8596 4.94279 23.6096C5.19284 23.3595 5.33331 23.0204 5.33331 22.6667V17.2134C4.29331 16.8401 3.75998 15.6934 4.13331 14.6667C4.42665 13.8667 5.15998 13.3334 5.99998 13.3334H6.09331L7.02665 10.6667H3.99998L5.99998 4.66675H20.12L19.8933 4.00008Z" fill="#007BB5"/>
</svg>
