<svg width="26" height="26" viewBox="0 0 26 26" fill="none" xmlns="http://www.w3.org/2000/svg">
<g id="logout variant">
<path id="Vector" d="M16.1251 16.125V18.2083H19.2501V21.3333H21.3334V18.2083H24.4584V16.125H21.3334V13H19.2501V16.125M16.0938 12.5938C15.9688 11.2083 14.6563 9.84375 13.0001 9.875C11.2292 9.90625 9.87506 11.2292 9.87506 13C9.87506 14.7708 11.2292 16.0625 13.0001 16.125C13.3959 16.125 13.8021 16.0417 14.1876 15.8854C14.4688 14.7396 14.9376 13.6562 16.0938 12.5938ZM14.0417 17.1667H7.79173C7.79173 16.0208 6.86464 15.0833 5.70839 15.0833V10.9167C6.86464 10.9167 7.79173 9.98958 7.79173 8.83333H18.2084C18.2084 9.98958 19.1459 10.9167 20.2917 10.9167V10.9792C20.9896 10.9792 21.6876 11.1042 22.3751 11.3333V6.75H3.62506V19.25H14.3751C14.1459 18.5521 14.0417 17.8542 14.0417 17.1667Z" fill="#007BB5"/>
</g>
</svg>
