<svg width="36" height="36" viewBox="0 0 36 36" fill="none" xmlns="http://www.w3.org/2000/svg">
<circle opacity="0.2" cx="18" cy="18" r="18" fill="#007BB5"/>
<circle cx="18" cy="18" r="12" fill="#007BB5"/>
<path d="M21.4182 18.78L20.6922 19.104C20.1676 19.3422 19.6007 19.4734 19.0248 19.4899C18.4489 19.5064 17.8755 19.4078 17.3382 19.2C16.9315 19.0379 16.495 18.9637 16.0576 18.9823C15.6202 19.0009 15.1916 19.1119 14.8002 19.308L13.0002 20.196V14.028L14.2482 13.428C14.7919 13.157 15.3868 13.0041 15.9938 12.9793C16.6008 12.9545 17.2061 13.0583 17.7702 13.284C18.1628 13.4359 18.582 13.5067 19.0028 13.4923C19.4235 13.4778 19.8369 13.3784 20.2182 13.2L21.4182 12.666V12H22.6182V24H21.4182V18.78Z" fill="white"/>
</svg>
