<svg width="111" height="118" viewBox="0 0 111 118" fill="none" xmlns="http://www.w3.org/2000/svg">
<circle cx="55.5" cy="55.5" r="55.5" fill="white"/>
<path d="M54.2786 13.0283C54.1644 13.0331 54.0438 13.0361 53.929 13.0417C30.914 14.135 12.1866 33.0098 13.0272 55.975C15.9045 77.9628 27.0713 85.8149 35.877 91.5524C44.4007 97.1039 50.7149 100.675 45.1678 113.162C43.2953 117.377 48.032 118.294 50.854 116.29C73.0086 100.41 99.1414 82.5632 97.4895 52.8005C96.8077 41.1396 91.5226 30.8191 83.4851 23.611C75.7483 16.6727 65.462 12.619 54.2786 13.0283ZM31.1434 54.9696C30.6664 41.9317 40.8486 30.975 53.8873 30.5001C66.9251 30.0216 77.8811 40.2046 78.3596 53.2438C78.8373 66.281 68.6551 77.2376 55.6172 77.7146C49.2502 77.9488 43.3783 75.6381 38.982 71.6955C34.3748 67.5652 31.3878 61.6418 31.1434 54.9696Z" fill="white"/>
<path d="M54.2786 13.0283C54.1644 13.0331 54.0438 13.0361 53.929 13.0417C30.914 14.135 12.1866 33.0098 13.0272 55.975C15.9045 77.9628 27.0713 85.8149 35.877 91.5524C44.4007 97.1039 50.7149 100.675 45.1678 113.162C43.2953 117.377 48.032 118.294 50.854 116.29C73.0086 100.41 99.1414 82.5632 97.4895 52.8005C96.8077 41.1396 91.5226 30.8191 83.4851 23.611C75.7483 16.6727 65.462 12.619 54.2786 13.0283ZM31.1434 54.9696C30.6664 41.9317 40.8486 30.975 53.8873 30.5001C66.9251 30.0216 77.8811 40.2046 78.3596 53.2438C78.8373 66.281 68.6551 77.2376 55.6172 77.7146C49.2502 77.9488 43.3783 75.6381 38.982 71.6955C34.3748 67.5652 31.3878 61.6418 31.1434 54.9696Z" fill="#F5365C"/>
<path fill-rule="evenodd" clip-rule="evenodd" d="M68.0913 66.9731C61.1219 74.2186 49.598 74.4431 42.3524 67.4738C35.1069 60.5044 34.8824 48.9805 41.8518 41.7349C48.8211 34.4894 60.3451 34.2649 67.5906 41.2342C74.8362 48.2036 75.0606 59.7276 68.0913 66.9731Z" fill="#484948"/>
<path fill-rule="evenodd" clip-rule="evenodd" d="M55.1094 45C53.888 45 52.9219 46.0342 53.005 47.2528L53.7314 57.9062C53.7808 58.6309 54.383 59.1935 55.1094 59.1935C55.8358 59.1935 56.4381 58.6309 56.4875 57.9062L57.2139 47.2528C57.297 46.0342 56.3309 45 55.1094 45ZM55.1094 61.7742C54.2187 61.7742 53.4965 62.4963 53.4965 63.3871C53.4965 64.2779 54.2187 65 55.1094 65C56.0002 65 56.7224 64.2779 56.7224 63.3871C56.7224 62.4963 56.0002 61.7742 55.1094 61.7742Z" fill="white"/>
</svg>
