<svg width="30" height="30" viewBox="0 0 30 30" fill="none" xmlns="http://www.w3.org/2000/svg">
<g id="pin-drop">
<path id="Vector" fill-rule="evenodd" clip-rule="evenodd" d="M7.5 25H22.5C23.1875 25 23.75 25.5625 23.75 26.25C23.75 26.9375 23.1875 27.5 22.5 27.5H7.5C6.8125 27.5 6.25 26.9375 6.25 26.25C6.25 25.5625 6.8125 25 7.5 25ZM15 8.75C13.625 8.75 12.5 9.875 12.5 11.25C12.5 12.625 13.625 13.75 15 13.75C15.663 13.75 16.2989 13.4866 16.7678 13.0178C17.2366 12.5489 17.5 11.913 17.5 11.25C17.5 10.587 17.2366 9.95107 16.7678 9.48223C16.2989 9.01339 15.663 8.75 15 8.75ZM15 2.5C19.0875 2.5 23.75 5.575 23.75 11.4375C23.75 15.1625 21.0875 19.0875 15.7625 23.175C15.3125 23.525 14.6875 23.525 14.2375 23.175C8.9125 19.075 6.25 15.1625 6.25 11.4375C6.25 5.575 10.9125 2.5 15 2.5Z" fill="#007BB5"/>
</g>
</svg>
