<svg width="140" height="60" viewBox="0 0 140 60" fill="none" xmlns="http://www.w3.org/2000/svg">
<path style="mix-blend-mode:multiply" d="M115.345 58.1647C115.345 59.1753 110.77 59.9959 105.119 59.9959C99.4676 59.9959 94.8926 59.1753 94.8926 58.1647C94.8926 57.1541 99.4752 56.3335 105.119 56.3335C110.762 56.3335 115.345 57.1541 115.345 58.1647Z" fill="url(#paint0_radial_108_20441)"/>
<path style="mix-blend-mode:multiply" d="M136 53.9931C136 55.0037 106.225 55.8244 69.5038 55.8244C32.783 55.8244 3 55.0037 3 53.9931C3 52.9825 32.7754 52.1543 69.5038 52.1543C106.232 52.1543 136 52.9749 136 53.9931Z" fill="url(#paint1_radial_108_20441)"/>
<path style="mix-blend-mode:multiply" d="M46.5685 58.1647C46.5685 59.1753 41.9934 59.9959 36.3424 59.9959C30.6913 59.9959 26.1162 59.1753 26.1162 58.1647C26.1162 57.1541 30.6988 56.3335 36.3424 56.3335C41.9859 56.3335 46.5685 57.1541 46.5685 58.1647Z" fill="url(#paint2_radial_108_20441)"/>
<path style="mix-blend-mode:screen" d="M28.5991 44.9889H17.1916C17.1916 44.9889 16.9659 38.4769 31.4585 34.9816C37.7869 33.4543 53.2051 33.895 53.2051 33.895H106.413C106.413 33.895 110.009 43.9099 101.582 41.4632C101.582 41.4632 70.5722 49.4872 44.8902 45.1636C29.7805 42.6181 28.5991 44.9813 28.5991 44.9813V44.9889Z" fill="url(#paint3_linear_108_20441)"/>
<path d="M112.35 28.4317C112.35 28.4317 99.1064 18.0749 86.7884 17.2315C74.4703 16.3881 63.1757 17.9002 56.0573 20.9472C51.8208 22.7632 43.363 27.9682 40.0145 28.8116C36.666 29.6551 21.3004 30.6277 14.4379 36.8585C12.504 38.6137 12.0977 43.6439 14.4078 45.7563C16.7103 47.8687 12.0375 49.9127 24.4533 49.9127H111.018L126.165 48.3246V34.351L125.33 30.1262L112.35 28.4393V28.4317Z" fill="url(#paint4_linear_108_20441)"/>
<path d="M26.575 34.5789L19.0126 33.8951C17.2819 34.7233 15.7168 35.6959 14.4376 36.8585C13.8883 37.36 13.4669 38.1274 13.1885 39.0164C14.859 38.2566 17.8463 38.6897 20.5402 37.284C23.5049 35.7415 26.5675 34.5789 26.5675 34.5789H26.575Z" fill="url(#paint5_linear_108_20441)"/>
<path style="mix-blend-mode:multiply" d="M125.33 30.1186L112.35 28.4317C112.35 28.4317 110.762 27.1856 108.166 25.5291L111.898 49.8291L126.165 48.3322V34.351L125.33 30.1262V30.1186Z" fill="url(#paint6_linear_108_20441)"/>
<path d="M19.0806 34.2446L25.1381 34.7917C23.9567 35.278 22.1583 36.0682 20.3975 36.98C18.885 37.7703 17.2672 37.9603 15.8375 38.1274C15.0624 38.2186 14.3702 38.3022 13.7606 38.4618C14.009 37.8919 14.3175 37.436 14.6636 37.1092C15.8149 36.0606 17.2973 35.1032 19.0731 34.2446H19.0806ZM19.0204 33.8951C17.2898 34.7233 15.7246 35.6959 14.4454 36.8585C13.8961 37.36 13.4747 38.1274 13.1963 39.0164C14.8668 38.2566 17.8541 38.6897 20.548 37.284C23.5127 35.7415 26.5753 34.5789 26.5753 34.5789L19.0129 33.8951H19.0204Z" fill="url(#paint7_linear_108_20441)"/>
<path d="M116.805 36.4557C118.061 37.9451 118.347 38.211 119.055 39.0164C120.913 41.1364 124.758 41.9495 126.165 42.0331V35.6731L116.805 36.4557Z" fill="url(#paint8_linear_108_20441)"/>
<path style="mix-blend-mode:multiply" d="M28.5991 44.9889H17.1916C17.1916 44.9889 16.9659 38.477 31.4585 34.9816C37.7869 33.4543 53.2051 33.895 53.2051 33.895L107.173 33.8343C107.173 33.8343 110.002 43.9099 101.574 41.4632C101.574 41.4632 70.5647 49.4872 44.8827 45.1636C29.773 42.6181 28.5916 44.9813 28.5916 44.9813L28.5991 44.9889Z" fill="url(#paint9_linear_108_20441)"/>
<path d="M50.752 24.4881C53.6264 22.8164 56.8696 21.0536 59.3001 19.7542C58.1413 20.1189 57.0577 20.5141 56.0569 20.9472C51.8205 22.7632 43.3627 27.9682 40.0141 28.8116C39.5175 28.9408 38.7425 29.0624 37.7793 29.2144C41.5868 29.3815 46.3726 27.0412 50.7444 24.4881H50.752Z" fill="url(#paint10_linear_108_20441)"/>
<path d="M105.119 39.8599C101.213 39.8599 97.8347 42.1926 96.2771 45.5436L95.4644 48.2487C95.3892 48.7274 95.3516 49.2213 95.3516 49.7228H114.878C114.878 44.2898 110.499 39.8675 105.119 39.8675V39.8599Z" fill="black"/>
<path d="M113.486 49.7152C113.486 54.3807 109.739 58.1647 105.119 58.1647C100.498 58.1647 96.751 54.3807 96.751 49.7152C96.751 45.0497 100.498 41.2656 105.119 41.2656C109.739 41.2656 113.486 45.0497 113.486 49.7152Z" fill="url(#paint11_radial_108_20441)"/>
<path d="M105.119 54.6466C102.425 54.6466 100.235 52.4354 100.235 49.7152C100.235 46.9949 102.425 44.7837 105.119 44.7837C107.813 44.7837 110.002 46.9949 110.002 49.7152C110.002 52.4354 107.813 54.6466 105.119 54.6466Z" fill="url(#paint12_radial_108_20441)"/>
<path style="mix-blend-mode:multiply" d="M105.119 54.6466C102.425 54.6466 100.235 52.4354 100.235 49.7152C100.235 46.9949 102.425 44.7837 105.119 44.7837C107.813 44.7837 110.002 46.9949 110.002 49.7152C110.002 52.4354 107.813 54.6466 105.119 54.6466Z" fill="url(#paint13_linear_108_20441)"/>
<path d="M105.118 51.1209C104.351 51.1209 103.719 50.4902 103.719 49.7152C103.719 48.9401 104.343 48.3018 105.118 48.3018C105.893 48.3018 106.51 48.9325 106.51 49.7152C106.51 50.4978 105.886 51.1209 105.118 51.1209Z" fill="#1C2426"/>
<path d="M18.17 36.7521C18.17 37.2004 17.2595 37.5575 16.8833 37.5575C16.507 37.5575 16.2061 37.1928 16.2061 36.7521C16.2061 36.3114 16.507 35.9391 16.8833 35.9391C17.2595 35.9391 18.17 36.3038 18.17 36.7521Z" fill="#A3A3A3"/>
<path style="mix-blend-mode:screen" d="M20.0887 34.6853C20.0887 34.6853 19.0729 34.3206 17.4551 35.7947C17.4551 35.7947 22.0903 35.1336 20.0887 34.6853Z" fill="url(#paint14_linear_108_20441)"/>
<path d="M21.6017 48.3094L20.5858 46.6909L15.1755 46.501C15.1003 46.501 15.0401 46.501 14.9648 46.501C15.8377 48.3246 13.4975 49.9127 24.446 49.9127H27.2452V48.3018H21.6017V48.3094Z" fill="url(#paint15_linear_108_20441)"/>
<path d="M36.3423 40.0574C32.437 40.0574 29.0584 42.3902 27.5007 45.7411L26.6881 48.4462C26.6128 48.9249 26.5752 49.4188 26.5752 49.9127H46.1019C46.1019 44.4798 41.7225 40.0574 36.3423 40.0574Z" fill="black"/>
<path d="M44.7097 49.9203C44.7097 54.5858 40.9623 58.3699 36.3421 58.3699C31.7219 58.3699 27.9746 54.5858 27.9746 49.9203C27.9746 45.2548 31.7219 41.4708 36.3421 41.4708C40.9623 41.4708 44.7097 45.2548 44.7097 49.9203Z" fill="url(#paint16_radial_108_20441)"/>
<path d="M36.3425 54.8441C33.6487 54.8441 31.459 52.633 31.459 49.9127C31.459 47.1924 33.6487 44.9813 36.3425 44.9813C39.0364 44.9813 41.2261 47.1924 41.2261 49.9127C41.2261 52.633 39.0364 54.8441 36.3425 54.8441Z" fill="url(#paint17_radial_108_20441)"/>
<path style="mix-blend-mode:multiply" d="M36.3425 54.8517C33.6487 54.8517 31.459 52.6406 31.459 49.9203C31.459 47.2 33.6487 44.9889 36.3425 44.9889C39.0364 44.9889 41.2261 47.2 41.2261 49.9203C41.2261 52.6406 39.0364 54.8517 36.3425 54.8517Z" fill="url(#paint18_linear_108_20441)"/>
<path d="M36.3423 51.326C35.5748 51.326 34.9502 50.6954 34.9502 49.9203C34.9502 49.1453 35.5748 48.5146 36.3423 48.5146C37.1098 48.5146 37.7344 49.1453 37.7344 49.9203C37.7344 50.6954 37.1098 51.326 36.3423 51.326Z" fill="#1C2426"/>
<path style="mix-blend-mode:multiply" d="M126.165 44.153L118.49 44.571L115.578 49.434L126.165 48.3246V44.153Z" fill="url(#paint19_linear_108_20441)"/>
<path d="M14.9118 41.22L12.8952 40.445C12.6694 42.3978 13.0983 44.5558 14.4076 45.7563L15.1752 44.3278L14.9118 41.22Z" fill="url(#paint20_linear_108_20441)"/>
<path d="M14.4909 44.1986C14.5661 44.1986 14.6414 44.1454 14.6564 44.0619C14.679 43.9707 14.6188 43.8795 14.5285 43.8567L13.1289 43.5528C13.1665 43.6819 13.2042 43.8035 13.2493 43.9251L14.4608 44.1834C14.4608 44.1834 14.4834 44.1834 14.4984 44.1834L14.4909 44.1986Z" fill="#808080"/>
<path d="M14.4907 41.9343C14.5659 41.9343 14.6412 41.8811 14.6562 41.7975C14.6788 41.7063 14.6186 41.6152 14.5283 41.5924L12.8428 41.2276C12.8428 41.3492 12.8428 41.4632 12.8428 41.5772L14.4606 41.9267C14.4606 41.9267 14.4832 41.9267 14.4982 41.9267L14.4907 41.9343Z" fill="#808080"/>
<path d="M14.5289 42.3522L12.8584 41.9951C12.8584 42.1167 12.8734 42.2306 12.8885 42.3522L14.4612 42.6866C14.4612 42.6866 14.4837 42.6866 14.4988 42.6866C14.574 42.6866 14.6493 42.6334 14.6643 42.5498C14.6869 42.4586 14.6267 42.3674 14.5364 42.3446L14.5289 42.3522Z" fill="#808080"/>
<path d="M14.5284 43.1045L12.9482 42.7625C12.9708 42.8841 12.9934 43.0057 13.016 43.1273L14.4532 43.4388C14.4532 43.4388 14.4758 43.4388 14.4908 43.4388C14.5661 43.4388 14.6413 43.3856 14.6564 43.302C14.6789 43.2109 14.6187 43.1197 14.5284 43.0969V43.1045Z" fill="#808080"/>
<path d="M14.4907 44.9509C14.5659 44.9509 14.6412 44.8977 14.6562 44.8141C14.6788 44.7229 14.6186 44.6318 14.5283 44.609L13.4297 44.3734C13.4899 44.5102 13.5651 44.6394 13.6329 44.7685L14.4531 44.9433C14.4531 44.9433 14.4756 44.9433 14.4907 44.9433V44.9509Z" fill="#808080"/>
<path d="M126.165 34.9816C123.517 34.9436 116.805 36.4557 116.805 36.4557L119.055 39.0164H126.165V34.9816Z" fill="url(#paint21_linear_108_20441)"/>
<path style="mix-blend-mode:screen" d="M120.033 38.3326L118.754 36.8737C120.552 36.4937 124.081 35.8023 126.173 35.6731V38.325H120.041L120.033 38.3326Z" fill="url(#paint22_linear_108_20441)"/>
<g style="mix-blend-mode:screen">
<path d="M122.351 36.8509C122.381 36.9801 122.298 37.1092 122.17 37.1396C122.042 37.17 121.914 37.0864 121.884 36.9573C121.854 36.8281 121.937 36.6989 122.065 36.6685C122.193 36.6381 122.321 36.7217 122.351 36.8509Z" fill="#808080"/>
</g>
<g style="mix-blend-mode:screen">
<path d="M123.472 36.4481C123.502 36.5773 123.419 36.7065 123.291 36.7369C123.163 36.7673 123.035 36.6837 123.005 36.5545C122.975 36.4253 123.058 36.2962 123.186 36.2658C123.314 36.2354 123.442 36.319 123.472 36.4481Z" fill="#808080"/>
</g>
<g style="mix-blend-mode:screen">
<path d="M124.631 36.1974C124.661 36.3266 124.578 36.4558 124.45 36.4861C124.322 36.5165 124.194 36.433 124.164 36.3038C124.134 36.1746 124.217 36.0454 124.345 36.015C124.473 35.9846 124.601 36.0682 124.631 36.1974Z" fill="#808080"/>
</g>
<g style="mix-blend-mode:screen">
<path d="M125.812 36.0378C125.842 36.167 125.759 36.2962 125.631 36.3266C125.503 36.357 125.375 36.2734 125.345 36.1442C125.315 36.015 125.398 35.8859 125.526 35.8555C125.654 35.8251 125.782 35.9087 125.812 36.0378Z" fill="#808080"/>
</g>
<path style="mix-blend-mode:overlay" d="M126.165 36.395L122.463 37.2916L126.165 38.0286V36.395Z" fill="url(#paint23_linear_108_20441)"/>
<path d="M65.1172 20.8788C65.1172 20.8788 52.754 22.5277 44.8906 30.3238L105.119 28.8496C105.119 28.8496 95.9084 15.8942 65.1172 20.8788Z" fill="url(#paint24_linear_108_20441)"/>
<path d="M71.2946 21.3119V28.5305H75.0043C75.0043 28.5305 74.0562 22.5125 75.4332 20.7952L71.2871 21.3195L71.2946 21.3119Z" fill="#212121"/>
<path d="M95.8856 23.5003C95.3062 23.4927 94.8622 23.2647 94.5537 22.9304V28.5305H95.9985C95.9985 28.5305 95.8329 25.8026 95.8856 23.5003Z" fill="#212121"/>
<path d="M78.3833 21.0991C91.4764 21.0991 98.6098 25.0428 101.838 27.5655L48.6906 28.8648C55.9746 23.5383 65.1849 22.2389 65.2902 22.2237H65.3053H65.3279C69.933 21.4791 74.3275 21.0991 78.3833 21.0991ZM78.3833 19.739C74.4855 19.739 70.0835 20.0733 65.1172 20.8788C65.1172 20.8788 52.754 22.5277 44.8906 30.3237L105.119 28.8496C105.119 28.8496 98.6324 19.739 78.3833 19.739Z" fill="#303030"/>
<path d="M66.4258 38.2414C65.3648 38.2414 64.5371 37.7323 64.5371 37.0864C64.5371 36.4406 65.3648 35.9315 66.4258 35.9315C67.4868 35.9315 68.3221 36.4406 68.3221 37.0864C68.3221 37.7323 67.4943 38.2414 66.4258 38.2414ZM66.4258 36.2658C65.5831 36.2658 64.8682 36.6381 64.8682 37.0864C64.8682 37.5347 65.5831 37.9071 66.4258 37.9071C67.2686 37.9071 67.9834 37.5347 67.9834 37.0864C67.9834 36.6381 67.2686 36.2658 66.4258 36.2658Z" fill="#C9C9C9"/>
<path d="M68.1495 37.0864C68.1495 37.6335 67.3744 38.0742 66.4263 38.0742C65.4782 38.0742 64.7031 37.6335 64.7031 37.0864C64.7031 36.5393 65.4782 36.0986 66.4263 36.0986C67.3744 36.0986 68.1495 36.5393 68.1495 37.0864Z" fill="url(#paint25_linear_108_20441)"/>
<path d="M68.8414 37.0788C68.8414 37.2764 68.691 37.4284 68.4953 37.4284L64.1987 37.4436C64.0106 37.4436 63.8525 37.2916 63.8525 37.094C63.8525 36.8965 64.003 36.7445 64.1987 36.7445L68.5104 36.5393C68.6985 36.5393 69.0145 36.6609 68.8414 37.0788Z" fill="url(#paint26_linear_108_20441)"/>
<path d="M88.8123 38.2414C87.7513 38.2414 86.916 37.7323 86.916 37.0864C86.916 36.4406 87.7513 35.9315 88.8123 35.9315C89.8732 35.9315 90.7085 36.4406 90.7085 37.0864C90.7085 37.7323 89.8732 38.2414 88.8123 38.2414ZM88.8123 36.2658C87.9695 36.2658 87.2546 36.6381 87.2546 37.0864C87.2546 37.5347 87.9695 37.9071 88.8123 37.9071C89.655 37.9071 90.3699 37.5347 90.3699 37.0864C90.3699 36.6381 89.655 36.2658 88.8123 36.2658Z" fill="#C9C9C9"/>
<path d="M90.543 37.0864C90.543 37.6335 89.768 38.0742 88.8198 38.0742C87.8717 38.0742 87.0967 37.6335 87.0967 37.0864C87.0967 36.5393 87.8642 36.0986 88.8198 36.0986C89.7755 36.0986 90.543 36.5393 90.543 37.0864Z" fill="url(#paint27_linear_108_20441)"/>
<path d="M91.2282 37.0788C91.2282 37.2764 91.0777 37.4284 90.882 37.4284L86.5854 37.4436C86.3973 37.4436 86.2393 37.2916 86.2393 37.094C86.2393 36.8965 86.3898 36.7445 86.5779 36.7445L90.8896 36.5393C91.0777 36.5393 91.3937 36.6609 91.2206 37.0788H91.2282Z" fill="url(#paint28_linear_108_20441)"/>
<path d="M46.9373 28.8116L46.1396 29.6779L46.6438 30.1718L47.7424 29.8071L46.9373 28.8116Z" fill="url(#paint29_linear_108_20441)"/>
<path d="M49.9175 29.3435L49.5713 26.7828C49.5112 26.3193 48.9543 26.0762 48.3599 26.2965C47.0807 26.7676 46.5991 29.4575 46.6593 29.5791C46.9979 30.2402 47.8557 30.1946 48.8715 30.187C49.5112 30.187 49.9777 29.7995 49.9175 29.3359V29.3435Z" fill="url(#paint30_linear_108_20441)"/>
<path style="mix-blend-mode:multiply" d="M49.9175 29.3435L49.5713 26.7828C49.5112 26.3193 48.9543 26.0762 48.3599 26.2965C47.0807 26.7676 46.5991 29.4575 46.6593 29.5791C46.9979 30.2402 47.8557 30.1946 48.8715 30.187C49.5112 30.187 49.9777 29.7995 49.9175 29.3359V29.3435Z" fill="url(#paint31_radial_108_20441)"/>
<path style="mix-blend-mode:screen" d="M49.9175 29.3435L49.5713 26.7828C49.5112 26.3193 48.9543 26.0762 48.3599 26.2965C47.0807 26.7676 46.5991 29.4575 46.6593 29.5791C46.9979 30.2402 47.8557 30.1946 48.8715 30.187C49.5112 30.187 49.9777 29.7995 49.9175 29.3359V29.3435Z" fill="url(#paint32_linear_108_20441)"/>
<path d="M35.8232 35.8403C35.8232 36.1138 35.605 36.3418 35.3341 36.3418H32.8885C32.6176 36.3418 32.3994 36.1214 32.3994 35.8403C32.3994 35.5667 32.6176 35.3464 32.8885 35.3464H35.3341C35.605 35.3464 35.8232 35.5667 35.8232 35.8403Z" fill="#A15600"/>
<path d="M35.8232 35.7491C35.8232 36.0226 35.605 36.2506 35.3341 36.2506H32.8885C32.6176 36.2506 32.3994 36.0302 32.3994 35.7491C32.3994 35.4755 32.6176 35.2552 32.8885 35.2552H35.3341C35.605 35.2552 35.8232 35.4755 35.8232 35.7491Z" fill="url(#paint33_linear_108_20441)"/>
<g clip-path="url(#clip0_108_20441)">
<path d="M78.9859 14H76V18H84L82.6246 15.7356C82.0413 14.7747 80.4135 14 78.9771 14H78.9859Z" fill="#F4CC25"/>
<path d="M69.3754 15.7356L68 18H76V14H73.0141C71.5952 14 69.9587 14.7821 69.3754 15.7356Z" fill="#F4CC25"/>
<path d="M73.9108 15.9516H72.3613V17.2775H73.9108V15.9516Z" fill="black"/>
<path d="M75.4519 14.6257H73.9023V15.9516H75.4519V14.6257Z" fill="black"/>
<path d="M77.0007 15.9516H75.4512V17.2775H77.0007V15.9516Z" fill="black"/>
<path d="M78.5505 14.6257H77.001V15.9516H78.5505V14.6257Z" fill="black"/>
<path d="M80.1003 15.9516H78.5508V17.2775H80.1003V15.9516Z" fill="black"/>
</g>
<defs>
<radialGradient id="paint0_radial_108_20441" cx="0" cy="0" r="1" gradientUnits="userSpaceOnUse" gradientTransform="translate(105.119 147.315) scale(10.0531 1.72577)">
<stop stop-color="#545454"/>
<stop offset="0.16" stop-color="#7D7D7D"/>
<stop offset="0.35" stop-color="#ABABAB"/>
<stop offset="0.54" stop-color="#CFCFCF"/>
<stop offset="0.72" stop-color="#E9E9E9"/>
<stop offset="0.88" stop-color="#F9F9F9"/>
<stop offset="1" stop-color="white"/>
</radialGradient>
<radialGradient id="paint1_radial_108_20441" cx="0" cy="0" r="1" gradientUnits="userSpaceOnUse" gradientTransform="translate(69.6693 143.07) scale(65.3449 1.72577)">
<stop stop-color="#949494"/>
<stop offset="0.14" stop-color="#ABABAB"/>
<stop offset="0.39" stop-color="#CFCFCF"/>
<stop offset="0.63" stop-color="#E9E9E9"/>
<stop offset="0.83" stop-color="#F9F9F9"/>
<stop offset="1" stop-color="white"/>
</radialGradient>
<radialGradient id="paint2_radial_108_20441" cx="0" cy="0" r="1" gradientUnits="userSpaceOnUse" gradientTransform="translate(36.3424 -5265.44) scale(10.0531 1.72577)">
<stop stop-color="#545454"/>
<stop offset="0.16" stop-color="#7D7D7D"/>
<stop offset="0.35" stop-color="#ABABAB"/>
<stop offset="0.54" stop-color="#CFCFCF"/>
<stop offset="0.72" stop-color="#E9E9E9"/>
<stop offset="0.88" stop-color="#F9F9F9"/>
<stop offset="1" stop-color="white"/>
</radialGradient>
<linearGradient id="paint3_linear_108_20441" x1="62.1821" y1="33.895" x2="62.1821" y2="46.4782" gradientUnits="userSpaceOnUse">
<stop offset="0.75"/>
<stop offset="0.76" stop-color="#2B2B2B"/>
<stop offset="0.79" stop-color="#757575"/>
<stop offset="0.81" stop-color="#B0B0B0"/>
<stop offset="0.83" stop-color="#DBDBDB"/>
<stop offset="0.85" stop-color="#F5F5F5"/>
<stop offset="0.86" stop-color="white"/>
</linearGradient>
<linearGradient id="paint4_linear_108_20441" x1="69.504" y1="16.996" x2="69.504" y2="49.8063" gradientUnits="userSpaceOnUse">
<stop stop-color="white"/>
<stop offset="0.03" stop-color="#FAFAFA"/>
<stop offset="0.09" stop-color="#F2F2F2"/>
<stop offset="0.26" stop-color="#FAFAFA"/>
<stop offset="0.48" stop-color="white"/>
<stop offset="0.71" stop-color="#FDFDFD"/>
<stop offset="0.8" stop-color="#F6F6F6"/>
<stop offset="0.82" stop-color="#F2F2F2"/>
<stop offset="0.86" stop-color="#E9E9E9"/>
<stop offset="0.93" stop-color="#D3D3D3"/>
<stop offset="1" stop-color="#B5B5B5"/>
</linearGradient>
<linearGradient id="paint5_linear_108_20441" x1="13.196" y1="36.4557" x2="26.575" y2="36.4557" gradientUnits="userSpaceOnUse">
<stop offset="0.01" stop-color="#292929"/>
<stop offset="0.19" stop-color="#787878"/>
<stop offset="0.23" stop-color="#7E7E7E"/>
<stop offset="0.35" stop-color="#8E8E8E"/>
<stop offset="0.4" stop-color="#989898"/>
<stop offset="0.54" stop-color="#B2B2B2"/>
<stop offset="0.69" stop-color="#C5C5C5"/>
<stop offset="0.84" stop-color="#D0D0D0"/>
<stop offset="1" stop-color="#D4D4D4"/>
</linearGradient>
<linearGradient id="paint6_linear_108_20441" x1="121.921" y1="45.1105" x2="113.713" y2="32.5929" gradientUnits="userSpaceOnUse">
<stop stop-color="#E6E6E6"/>
<stop offset="0.45" stop-color="#EEEEEE"/>
<stop offset="1" stop-color="white"/>
</linearGradient>
<linearGradient id="paint7_linear_108_20441" x1="13.1963" y1="36.4557" x2="26.5753" y2="36.4557" gradientUnits="userSpaceOnUse">
<stop stop-color="white"/>
<stop offset="0.06" stop-color="#EAEAEA"/>
<stop offset="0.24" stop-color="#B0B0B0"/>
<stop offset="0.42" stop-color="#7F7F7F"/>
<stop offset="0.59" stop-color="#5A5A5A"/>
<stop offset="0.75" stop-color="#3F3F3F"/>
<stop offset="0.88" stop-color="#2E2E2E"/>
<stop offset="0.99" stop-color="#292929"/>
</linearGradient>
<linearGradient id="paint8_linear_108_20441" x1="121.485" y1="35.3236" x2="121.485" y2="41.6607" gradientUnits="userSpaceOnUse">
<stop stop-color="#B5B5B5"/>
<stop offset="0.17" stop-color="#BBBBBB"/>
<stop offset="0.41" stop-color="#CFCFCF"/>
<stop offset="0.7" stop-color="#EEEEEE"/>
<stop offset="0.73" stop-color="#F2F2F2"/>
<stop offset="0.93" stop-color="#FAFAFA"/>
<stop offset="1" stop-color="white"/>
</linearGradient>
<linearGradient id="paint9_linear_108_20441" x1="62.4079" y1="33.895" x2="62.4079" y2="46.4782" gradientUnits="userSpaceOnUse">
<stop stop-color="#E6E6E6"/>
<stop offset="1" stop-color="white"/>
</linearGradient>
<linearGradient id="paint10_linear_108_20441" x1="48.5397" y1="16.996" x2="48.5397" y2="49.8063" gradientUnits="userSpaceOnUse">
<stop stop-color="#5F5A5E"/>
<stop offset="0.28" stop-color="#262529"/>
<stop offset="0.48" stop-color="#29272B"/>
<stop offset="0.63" stop-color="#323134"/>
<stop offset="0.76" stop-color="#424144"/>
<stop offset="0.81" stop-color="#4A484B"/>
</linearGradient>
<radialGradient id="paint11_radial_108_20441" cx="0" cy="0" r="1" gradientUnits="userSpaceOnUse" gradientTransform="translate(105.119 49.7152) scale(8.36753 8.44955)">
<stop offset="0.7" stop-color="#504E51"/>
<stop offset="0.77" stop-color="#484649"/>
<stop offset="0.88" stop-color="#333234"/>
<stop offset="1" stop-color="#141414"/>
</radialGradient>
<radialGradient id="paint12_radial_108_20441" cx="0" cy="0" r="1" gradientUnits="userSpaceOnUse" gradientTransform="translate(105.119 49.7152) scale(4.88356 4.93144)">
<stop stop-color="white"/>
<stop offset="0.1" stop-color="#DCDCDC"/>
<stop offset="0.19" stop-color="#C5C5C5"/>
<stop offset="0.25" stop-color="#BDBDBD"/>
<stop offset="0.28" stop-color="#C9C9C9"/>
<stop offset="0.37" stop-color="#DEDEDE"/>
<stop offset="0.45" stop-color="#EBEBEB"/>
<stop offset="0.52" stop-color="#F0F0F0"/>
<stop offset="0.68" stop-color="#F0F0F0"/>
<stop offset="0.7" stop-color="#F0F0F0"/>
<stop offset="0.85" stop-color="#EEEEEE"/>
<stop offset="0.9" stop-color="#E7E7E7"/>
<stop offset="0.93" stop-color="#DBDBDB"/>
<stop offset="0.96" stop-color="#CACACA"/>
<stop offset="0.99" stop-color="#B4B4B4"/>
<stop offset="1" stop-color="#A8A8A8"/>
</radialGradient>
<linearGradient id="paint13_linear_108_20441" x1="102.162" y1="45.9767" x2="108.276" y2="53.5474" gradientUnits="userSpaceOnUse">
<stop stop-color="white"/>
<stop offset="0.07" stop-color="white"/>
<stop offset="0.51" stop-color="white"/>
<stop offset="0.62" stop-color="#FCFCFC"/>
<stop offset="0.66" stop-color="#F5F5F5"/>
<stop offset="0.7" stop-color="#E9E9E9"/>
<stop offset="0.73" stop-color="#D7D7D7"/>
<stop offset="0.75" stop-color="#BDBDBD"/>
<stop offset="0.76" stop-color="#C2C2C2"/>
<stop offset="0.78" stop-color="#D8D8D8"/>
<stop offset="0.81" stop-color="#E9E9E9"/>
<stop offset="0.84" stop-color="#F6F6F6"/>
<stop offset="0.89" stop-color="#FDFDFD"/>
<stop offset="1" stop-color="white"/>
</linearGradient>
<linearGradient id="paint14_linear_108_20441" x1="17.4551" y1="35.2172" x2="20.5929" y2="35.2172" gradientUnits="userSpaceOnUse">
<stop stop-color="#707070"/>
<stop offset="1"/>
</linearGradient>
<linearGradient id="paint15_linear_108_20441" x1="21.1126" y1="46.5162" x2="21.1126" y2="49.9203" gradientUnits="userSpaceOnUse">
<stop stop-color="#5F5A5E"/>
<stop offset="0.28" stop-color="#262529"/>
<stop offset="0.48" stop-color="#29272B"/>
<stop offset="0.63" stop-color="#323134"/>
<stop offset="0.76" stop-color="#424144"/>
<stop offset="0.81" stop-color="#4A484B"/>
</linearGradient>
<radialGradient id="paint16_radial_108_20441" cx="0" cy="0" r="1" gradientUnits="userSpaceOnUse" gradientTransform="translate(36.3421 49.9203) scale(8.36753 8.44955)">
<stop offset="0.7" stop-color="#504E51"/>
<stop offset="0.77" stop-color="#484649"/>
<stop offset="0.88" stop-color="#333234"/>
<stop offset="1" stop-color="#141414"/>
</radialGradient>
<radialGradient id="paint17_radial_108_20441" cx="0" cy="0" r="1" gradientUnits="userSpaceOnUse" gradientTransform="translate(36.3425 49.9203) scale(4.88356 4.93144)">
<stop stop-color="white"/>
<stop offset="0.1" stop-color="#DCDCDC"/>
<stop offset="0.19" stop-color="#C5C5C5"/>
<stop offset="0.25" stop-color="#BDBDBD"/>
<stop offset="0.28" stop-color="#C9C9C9"/>
<stop offset="0.37" stop-color="#DEDEDE"/>
<stop offset="0.45" stop-color="#EBEBEB"/>
<stop offset="0.52" stop-color="#F0F0F0"/>
<stop offset="0.68" stop-color="#F0F0F0"/>
<stop offset="0.7" stop-color="#F0F0F0"/>
<stop offset="0.85" stop-color="#EEEEEE"/>
<stop offset="0.9" stop-color="#E7E7E7"/>
<stop offset="0.93" stop-color="#DBDBDB"/>
<stop offset="0.96" stop-color="#CACACA"/>
<stop offset="0.99" stop-color="#B4B4B4"/>
<stop offset="1" stop-color="#A8A8A8"/>
</radialGradient>
<linearGradient id="paint18_linear_108_20441" x1="33.3778" y1="46.1818" x2="39.4922" y2="53.7449" gradientUnits="userSpaceOnUse">
<stop stop-color="white"/>
<stop offset="0.11" stop-color="#FDFDFD"/>
<stop offset="0.16" stop-color="#F6F6F6"/>
<stop offset="0.19" stop-color="#E9E9E9"/>
<stop offset="0.22" stop-color="#D8D8D8"/>
<stop offset="0.24" stop-color="#C2C2C2"/>
<stop offset="0.25" stop-color="#C0C0C0"/>
<stop offset="0.27" stop-color="#D7D7D7"/>
<stop offset="0.3" stop-color="#E9E9E9"/>
<stop offset="0.34" stop-color="#F5F5F5"/>
<stop offset="0.38" stop-color="#FCFCFC"/>
<stop offset="0.49" stop-color="white"/>
<stop offset="0.93" stop-color="white"/>
<stop offset="1" stop-color="white"/>
</linearGradient>
<linearGradient id="paint19_linear_108_20441" x1="120.876" y1="44.2442" x2="120.876" y2="49.0085" gradientUnits="userSpaceOnUse">
<stop stop-color="#5F5A5E"/>
<stop offset="0.28" stop-color="#262529"/>
<stop offset="0.48" stop-color="#29272B"/>
<stop offset="0.63" stop-color="#323134"/>
<stop offset="0.76" stop-color="#424144"/>
<stop offset="0.81" stop-color="#4A484B"/>
</linearGradient>
<linearGradient id="paint20_linear_108_20441" x1="14.0088" y1="40.6577" x2="14.0088" y2="45.7487" gradientUnits="userSpaceOnUse">
<stop stop-color="#5F5A5E"/>
<stop offset="0.28" stop-color="#262529"/>
<stop offset="0.48" stop-color="#29272B"/>
<stop offset="0.63" stop-color="#323134"/>
<stop offset="0.76" stop-color="#424144"/>
<stop offset="0.81" stop-color="#4A484B"/>
</linearGradient>
<linearGradient id="paint21_linear_108_20441" x1="116.805" y1="36.9952" x2="126.165" y2="36.9952" gradientUnits="userSpaceOnUse">
<stop stop-color="#DB2A24"/>
<stop offset="1" stop-color="#FF6963"/>
</linearGradient>
<linearGradient id="paint22_linear_108_20441" x1="118.754" y1="37.0104" x2="126.166" y2="37.0104" gradientUnits="userSpaceOnUse">
<stop stop-color="#AB0700"/>
<stop offset="0.17" stop-color="#7C0500"/>
<stop offset="0.36" stop-color="#500300"/>
<stop offset="0.54" stop-color="#2D0100"/>
<stop offset="0.72" stop-color="#140000"/>
<stop offset="0.87" stop-color="#050000"/>
<stop offset="1"/>
</linearGradient>
<linearGradient id="paint23_linear_108_20441" x1="122.463" y1="37.208" x2="126.165" y2="37.208" gradientUnits="userSpaceOnUse">
<stop/>
<stop offset="0.1" stop-color="#050202"/>
<stop offset="0.22" stop-color="#140807"/>
<stop offset="0.36" stop-color="#2D1211"/>
<stop offset="0.51" stop-color="#50211F"/>
<stop offset="0.66" stop-color="#7D3330"/>
<stop offset="0.81" stop-color="#B44A46"/>
<stop offset="0.97" stop-color="#F4645E"/>
<stop offset="1" stop-color="#FF6963"/>
</linearGradient>
<linearGradient id="paint24_linear_108_20441" x1="75.0047" y1="19.5111" x2="75.0047" y2="29.4955" gradientUnits="userSpaceOnUse">
<stop stop-color="#5F5A5E"/>
<stop offset="0.28" stop-color="#262529"/>
<stop offset="0.48" stop-color="#29272B"/>
<stop offset="0.63" stop-color="#323134"/>
<stop offset="0.76" stop-color="#424144"/>
<stop offset="0.81" stop-color="#4A484B"/>
</linearGradient>
<linearGradient id="paint25_linear_108_20441" x1="66.4263" y1="35.9011" x2="66.4263" y2="38.3858" gradientUnits="userSpaceOnUse">
<stop stop-color="#A8A8A8"/>
<stop offset="0.13" stop-color="#A9A9A9"/>
<stop offset="0.18" stop-color="#B0B0B0"/>
<stop offset="0.21" stop-color="#BCBCBC"/>
<stop offset="0.24" stop-color="#CDCDCD"/>
<stop offset="0.26" stop-color="#E3E3E3"/>
<stop offset="0.27" stop-color="#E9E9E9"/>
<stop offset="0.54" stop-color="#F2F2F2"/>
<stop offset="0.7" stop-color="#DFDFDF"/>
<stop offset="0.75" stop-color="#C5C5C5"/>
<stop offset="0.85" stop-color="#9E9E9E"/>
<stop offset="0.93" stop-color="#858585"/>
<stop offset="0.98" stop-color="#7D7D7D"/>
</linearGradient>
<linearGradient id="paint26_linear_108_20441" x1="66.3704" y1="36.5307" x2="66.3736" y2="37.4273" gradientUnits="userSpaceOnUse">
<stop stop-color="#999999"/>
<stop offset="0.26" stop-color="#EBEBEB"/>
<stop offset="0.69" stop-color="#5C5C5C"/>
</linearGradient>
<linearGradient id="paint27_linear_108_20441" x1="88.8198" y1="16.996" x2="88.8198" y2="16.996" gradientUnits="userSpaceOnUse">
<stop stop-color="#A8A8A8"/>
<stop offset="0.13" stop-color="#A9A9A9"/>
<stop offset="0.18" stop-color="#B0B0B0"/>
<stop offset="0.21" stop-color="#BCBCBC"/>
<stop offset="0.24" stop-color="#CDCDCD"/>
<stop offset="0.26" stop-color="#E3E3E3"/>
<stop offset="0.27" stop-color="#E9E9E9"/>
<stop offset="0.54" stop-color="#F2F2F2"/>
<stop offset="0.7" stop-color="#DFDFDF"/>
<stop offset="0.75" stop-color="#C5C5C5"/>
<stop offset="0.85" stop-color="#9E9E9E"/>
<stop offset="0.93" stop-color="#858585"/>
<stop offset="0.98" stop-color="#7D7D7D"/>
</linearGradient>
<linearGradient id="paint28_linear_108_20441" x1="88.7573" y1="36.5278" x2="88.7604" y2="37.4244" gradientUnits="userSpaceOnUse">
<stop stop-color="#999999"/>
<stop offset="0.26" stop-color="#EBEBEB"/>
<stop offset="0.69" stop-color="#5C5C5C"/>
</linearGradient>
<linearGradient id="paint29_linear_108_20441" x1="46.9448" y1="28.8116" x2="46.9448" y2="30.1718" gradientUnits="userSpaceOnUse">
<stop stop-color="#5F5A5E"/>
<stop offset="0.28"/>
<stop offset="0.75"/>
<stop offset="0.81"/>
</linearGradient>
<linearGradient id="paint30_linear_108_20441" x1="46.3647" y1="27.7603" x2="49.5901" y2="27.3273" gradientUnits="userSpaceOnUse">
<stop offset="0.22" stop-color="#545454"/>
<stop offset="0.4" stop-color="#7D7D7D"/>
<stop offset="0.55" stop-color="#7F7F7F"/>
<stop offset="0.62" stop-color="#868686"/>
<stop offset="0.68" stop-color="#939393"/>
<stop offset="0.72" stop-color="#A6A6A6"/>
<stop offset="0.77" stop-color="#BEBEBE"/>
<stop offset="0.8" stop-color="#DBDBDB"/>
<stop offset="0.83" stop-color="#F2F2F2"/>
<stop offset="0.99" stop-color="#A8A8A8"/>
</linearGradient>
<radialGradient id="paint31_radial_108_20441" cx="0" cy="0" r="1" gradientUnits="userSpaceOnUse" gradientTransform="translate(48.0978 25.2801) rotate(-7.79476) scale(1.93872 1.90598)">
<stop stop-color="white"/>
<stop offset="0.23" stop-color="#FBFBFB"/>
<stop offset="0.45" stop-color="#EFEFEF"/>
<stop offset="0.67" stop-color="#DBDBDB"/>
<stop offset="0.89" stop-color="#C0C0C0"/>
<stop offset="1" stop-color="#B0B0B0"/>
</radialGradient>
<linearGradient id="paint32_linear_108_20441" x1="47.6224" y1="26.6765" x2="48.1049" y2="28.0945" gradientUnits="userSpaceOnUse">
<stop stop-color="#707070"/>
<stop offset="0.34" stop-color="#949494"/>
<stop offset="0.35" stop-color="#909090"/>
<stop offset="0.51" stop-color="#5D5D5D"/>
<stop offset="0.66" stop-color="#343434"/>
<stop offset="0.8" stop-color="#171717"/>
<stop offset="0.91" stop-color="#060606"/>
<stop offset="1"/>
</linearGradient>
<linearGradient id="paint33_linear_108_20441" x1="33.5883" y1="35.5439" x2="32.5849" y2="35.1479" gradientUnits="userSpaceOnUse">
<stop offset="0.01" stop-color="#FF8000"/>
<stop offset="0.1" stop-color="#FF8500"/>
<stop offset="0.21" stop-color="#FF9600"/>
<stop offset="0.34" stop-color="#FFB000"/>
<stop offset="0.44" stop-color="#FFCC00"/>
<stop offset="0.79" stop-color="#FFA300"/>
<stop offset="1" stop-color="#FF8900"/>
</linearGradient>
<clipPath id="clip0_108_20441">
<rect width="16" height="4" fill="white" transform="translate(68 14)"/>
</clipPath>
</defs>
</svg>
