<svg width="132" height="49" viewBox="0 0 132 49" fill="none" xmlns="http://www.w3.org/2000/svg">
<path style="mix-blend-mode:multiply" d="M43.409 47.1474C43.409 48.1682 38.8023 49 33.1205 49C27.4387 49 22.832 48.1758 22.832 47.1474C22.832 46.119 27.4387 45.2947 33.1205 45.2947C38.8023 45.2947 43.409 46.1265 43.409 47.1474Z" fill="url(#paint0_radial_101_18449)"/>
<path style="mix-blend-mode:multiply" opacity="0.7" d="M131.443 41.8012C131.443 42.822 102.019 43.6538 65.7178 43.6538C29.417 43.6538 0 42.822 0 41.8012C0 40.7803 29.4319 39.9485 65.7178 39.9485C102.004 39.9485 131.443 40.7803 131.443 41.8012Z" fill="url(#paint1_radial_101_18449)"/>
<path d="M107.417 0H56.9678V38.5119H114.839V15.373C114.839 15.373 113.958 0 107.417 0Z" fill="url(#paint2_linear_101_18449)"/>
<path style="mix-blend-mode:multiply" d="M107.417 0H56.9678V38.5119H114.839V15.373C114.839 15.373 113.958 0 107.417 0Z" fill="url(#paint3_linear_101_18449)"/>
<path d="M50.987 0C49.0234 0 43.9463 0 38.929 4.04552L23.3619 16.5526C23.3619 16.5526 17.7921 19.8571 16.381 21.4602C15.3208 22.6625 13.3721 27.1239 13.3721 27.1239L13.387 29.884H23.123L25.4898 32.6364L23.7277 38.5119H56.9674V0H50.987Z" fill="url(#paint4_linear_101_18449)"/>
<path style="mix-blend-mode:multiply" d="M50.987 0C49.0234 0 43.9463 0 38.929 4.04552L23.3619 16.5526C23.3619 16.5526 17.7921 19.8571 16.381 21.4602C15.3208 22.6625 13.3721 27.1239 13.3721 27.1239L13.387 29.884H23.123L25.4898 32.6364L23.7277 38.5119H56.9674V0H50.987Z" fill="url(#paint5_linear_101_18449)"/>
<path d="M93.2685 29.8839H42.7295V30.8594H93.2685V29.8839Z" fill="url(#paint6_linear_101_18449)"/>
<path d="M23.123 29.8839H13.3871L13.4169 36.7122C13.4169 36.7122 12.9466 38.5118 15.1939 38.5118H24.34L26.0274 32.9162L23.123 29.8839Z" fill="url(#paint7_linear_101_18449)"/>
<path d="M34.0085 28.4471C30.029 28.4471 26.5945 30.8291 25.0042 34.2546L24.1755 37.0146C24.1008 37.5061 24.0635 38.0052 24.0635 38.5194H43.9461C43.9461 32.9691 39.4887 28.4547 34.0085 28.4547V28.4471Z" fill="black"/>
<path d="M42.5282 38.5118C42.5282 43.2757 38.7129 47.1398 34.0092 47.1398C29.3055 47.1398 25.4902 43.2757 25.4902 38.5118C25.4902 33.748 29.3055 29.8839 34.0092 29.8839C38.7129 29.8839 42.5282 33.748 42.5282 38.5118Z" fill="url(#paint8_radial_101_18449)"/>
<path d="M34.0086 43.548C31.2685 43.548 29.0361 41.287 29.0361 38.5119C29.0361 35.7367 31.2685 33.4758 34.0086 33.4758C36.7488 33.4758 38.9812 35.7367 38.9812 38.5119C38.9812 41.287 36.7488 43.548 34.0086 43.548Z" fill="url(#paint9_radial_101_18449)"/>
<path style="mix-blend-mode:multiply" d="M34.0086 43.548C31.2685 43.548 29.0361 41.287 29.0361 38.5119C29.0361 35.7367 31.2685 33.4758 34.0086 33.4758C36.7488 33.4758 38.9812 35.7367 38.9812 38.5119C38.9812 41.287 36.7488 43.548 34.0086 43.548Z" fill="url(#paint10_linear_101_18449)"/>
<path d="M34.0084 39.9486C33.2245 39.9486 32.5898 39.3058 32.5898 38.5119C32.5898 37.7179 33.2245 37.0751 34.0084 37.0751C34.7924 37.0751 35.427 37.7179 35.427 38.5119C35.427 39.3058 34.7924 39.9486 34.0084 39.9486Z" fill="#1C2426"/>
<path d="M115.667 31.6912V29.884L114.838 29.0522H108.805L104.505 31.6912L106.558 38.5119H114.838L115.488 36.4249L114.838 33.4834V31.8047L115.667 31.6912Z" fill="url(#paint11_linear_101_18449)"/>
<path d="M52.8756 3.38763C52.8756 3.38763 43.4009 2.69195 37.1815 8.19689C34.755 10.3444 33.0079 11.7131 32.0074 12.7188C31.3803 14.3824 31.2832 16.4392 31.2832 16.4392H52.8681V3.38763H52.8756Z" fill="url(#paint12_linear_101_18449)"/>
<path d="M52.6666 3.59184C51.7632 3.55403 50.8449 3.57671 49.9415 3.63721C48.9634 3.70526 47.9928 3.82625 47.0371 4.00017C45.1108 4.34045 43.2218 4.89246 41.4524 5.70156C40.5639 6.10989 39.7127 6.58628 38.9064 7.13073C38.0925 7.67517 37.3609 8.31792 36.6142 8.96823C35.8676 9.61854 35.121 10.2613 34.3594 10.904L33.2395 11.8719C32.8662 12.1971 32.5227 12.5374 32.1569 12.8701L32.2017 12.7945C32.1121 13.0894 31.9926 13.3767 31.9254 13.6792C31.8433 13.9817 31.7836 14.2841 31.7238 14.5942C31.6119 15.2067 31.5297 15.8343 31.4924 16.4543L31.2908 16.235L52.8757 16.0233L52.465 16.4392L52.6666 3.58428V3.59184ZM53.0847 3.38767L53.2938 16.4468C53.2938 16.6736 53.1221 16.8627 52.8981 16.8627H52.8832L31.2983 16.6509C31.1863 16.6509 31.0967 16.5602 31.0967 16.4468V16.4317C31.134 15.7813 31.2161 15.1537 31.3281 14.5185C31.3879 14.2009 31.4551 13.8834 31.5372 13.5733C31.6044 13.2557 31.7238 12.9533 31.8284 12.6432C31.8358 12.613 31.8582 12.5903 31.8732 12.5676C32.239 12.2273 32.5974 11.8719 32.9782 11.5543L34.1056 10.5864C34.8597 9.95125 35.6063 9.3085 36.3529 8.6582C37.0921 8.00789 37.8536 7.34245 38.6824 6.79045C39.5111 6.23088 40.3847 5.74693 41.2881 5.32347C42.1915 4.90758 43.1248 4.55974 44.0805 4.27239C45.0287 3.98505 45.9993 3.7582 46.9774 3.58428C47.9554 3.41036 48.941 3.28937 49.9265 3.22131C50.9195 3.15326 51.9051 3.12301 52.9056 3.17594C53.0101 3.17594 53.0922 3.26668 53.0997 3.37255L53.0847 3.38767Z" fill="#454545"/>
<path d="M31.3359 16.4165L32.986 16.5677V13.906C31.3359 15.7813 31.3359 16.4165 31.3359 16.4165Z" fill="url(#paint13_linear_101_18449)"/>
<path d="M39.8395 3.35742L26.0121 16.1367C26.0121 16.1367 24.9966 17.082 23.5557 16.4014L39.8395 3.35742Z" fill="url(#paint14_linear_101_18449)"/>
<path d="M32.5828 14.3672C32.5828 14.3672 32.2842 14.9873 32.2842 15.2368V16.1518L32.7695 16.5677L32.5828 14.3672Z" fill="url(#paint15_linear_101_18449)"/>
<path d="M34.8381 16.4166C34.8829 16.2805 34.9053 16.1292 34.9053 15.9704L34.644 12.5525C34.644 12.2879 34.5693 12.0383 34.4499 11.8342C34.3005 12.5525 34.532 13.7322 34.8381 16.4166Z" fill="url(#paint16_linear_101_18449)"/>
<path d="M33.6431 11.3275C33.0906 11.3275 32.6426 11.8719 32.6426 12.5525V16.1821C32.6426 16.8551 33.0906 17.4071 33.6431 17.4071C34.0686 17.4071 34.7331 16.787 34.875 16.3333C34.5689 13.6489 34.3075 12.5525 34.4494 11.8417C34.2702 11.5316 33.9716 11.335 33.6356 11.335L33.6431 11.3275Z" fill="url(#paint17_linear_101_18449)"/>
<path style="mix-blend-mode:screen" d="M33.8223 11.63C33.8223 11.63 32.9786 11.3048 32.7695 12.5903C32.7695 12.5903 32.9637 11.819 33.8223 11.63Z" fill="url(#paint18_linear_101_18449)"/>
<path d="M19.5694 31.8274C19.5694 32.1072 19.3454 32.334 19.0692 32.334H16.5754C16.2992 32.334 16.0752 32.1072 16.0752 31.8274C16.0752 31.5476 16.2992 31.3207 16.5754 31.3207H19.0692C19.3454 31.3207 19.5694 31.5476 19.5694 31.8274Z" fill="#A15600"/>
<path d="M19.5694 31.7366C19.5694 32.0164 19.3454 32.2433 19.0692 32.2433H16.5754C16.2992 32.2433 16.0752 32.0164 16.0752 31.7366C16.0752 31.4568 16.2992 31.23 16.5754 31.23H19.0692C19.3454 31.23 19.5694 31.4568 19.5694 31.7366Z" fill="url(#paint19_linear_101_18449)"/>
<path d="M46.9701 19.6227C46.7387 20.1747 47.0299 20.6132 47.6197 20.6132H51.0542C51.644 20.6132 52.1218 20.1671 52.1218 19.6151V18.6169H47.3882L46.9701 19.6151V19.6227Z" fill="url(#paint20_linear_101_18449)"/>
<path d="M51.0541 20.704H47.6196C47.306 20.704 47.0522 20.583 46.9103 20.3713C46.7684 20.1596 46.761 19.8798 46.8804 19.5849L47.3209 18.5338H52.2039V19.6227C52.2039 20.2201 51.6887 20.7116 51.0541 20.7116V20.704ZM47.4479 18.7077L47.0596 19.6529C46.9626 19.8874 46.9626 20.1067 47.0671 20.273C47.1716 20.4394 47.3732 20.5225 47.6271 20.5225H51.0615C51.5991 20.5225 52.0396 20.1142 52.0396 19.6151V18.7077H47.4553H47.4479Z" fill="#E0E0E0"/>
<path d="M51.6887 19.6151C51.6887 19.8117 51.5543 19.9705 51.39 19.9781L47.6196 19.9932C47.4553 19.9932 47.3135 19.8344 47.3135 19.6378C47.3135 19.4412 47.4479 19.2748 47.6121 19.2748L51.3826 19.2597C51.5468 19.2597 51.6887 19.4185 51.6887 19.6151Z" fill="url(#paint21_linear_101_18449)"/>
<path d="M51.3004 19.6226C51.3004 19.7436 51.2108 19.8495 51.1062 19.8495C51.0017 19.8495 50.9121 19.7512 50.9121 19.6226C50.9121 19.4941 51.0017 19.3958 51.1062 19.3958C51.2108 19.3958 51.3004 19.4941 51.3004 19.6226Z" fill="url(#paint22_radial_101_18449)"/>
<path d="M56.6391 19.6227C56.4076 20.1747 56.6988 20.6132 57.2886 20.6132H60.7156C61.3055 20.6132 61.7758 20.1671 61.7758 19.6151V18.6169H57.0422L56.6241 19.6151L56.6391 19.6227Z" fill="url(#paint23_linear_101_18449)"/>
<path d="M60.7155 20.704H57.2885C56.975 20.704 56.7211 20.583 56.5792 20.3713C56.4374 20.1596 56.4299 19.8798 56.5494 19.5849L56.9899 18.5338H61.8728V19.6227C61.8728 20.2201 61.3576 20.7116 60.723 20.7116L60.7155 20.704ZM57.1094 18.7077L56.7136 19.6529C56.6166 19.8874 56.6166 20.1067 56.7286 20.273C56.8331 20.4394 57.0347 20.5225 57.2885 20.5225H60.7155C61.2531 20.5225 61.6936 20.1142 61.6936 19.6151V18.7077H57.1094Z" fill="#E0E0E0"/>
<path d="M61.3576 19.6151C61.3576 19.8117 61.2232 19.9705 61.059 19.9781L57.2885 19.9932C57.1243 19.9932 56.9824 19.8344 56.9824 19.6378C56.9824 19.4412 57.1168 19.2748 57.2811 19.2748L61.0515 19.2597C61.2158 19.2597 61.3576 19.4185 61.3576 19.6151Z" fill="url(#paint24_linear_101_18449)"/>
<path d="M60.9693 19.6226C60.9693 19.7436 60.8797 19.8495 60.7752 19.8495C60.6707 19.8495 60.5811 19.7512 60.5811 19.6226C60.5811 19.4941 60.6632 19.3958 60.7752 19.3958C60.8872 19.3958 60.9693 19.4941 60.9693 19.6226Z" fill="url(#paint25_radial_101_18449)"/>
<path d="M111.829 31.3659C111.829 31.6457 111.605 31.8726 111.329 31.8726H108.835C108.559 31.8726 108.335 31.6457 108.335 31.3659C108.335 31.0862 108.559 30.8593 108.835 30.8593H111.329C111.605 30.8593 111.829 31.0862 111.829 31.3659Z" fill="#A15600"/>
<path d="M111.829 31.2753C111.829 31.555 111.605 31.7819 111.329 31.7819H108.835C108.559 31.7819 108.335 31.555 108.335 31.2753C108.335 30.9955 108.559 30.7686 108.835 30.7686H111.329C111.605 30.7686 111.829 30.9955 111.829 31.2753Z" fill="url(#paint26_linear_101_18449)"/>
<path d="M82.6961 37.7935H43.9463V39.2302H82.6961V37.7935Z" fill="url(#paint27_linear_101_18449)"/>
<path d="M52.0768 23.3884C52.0768 23.8799 51.6811 24.2883 51.1883 24.2883H35.6063C35.1135 24.2883 34.7178 23.8875 34.7178 23.3884C34.7178 22.8894 35.1135 22.4886 35.6063 22.4886H51.1883C51.6811 22.4886 52.0768 22.8894 52.0768 23.3884Z" fill="url(#paint28_linear_101_18449)"/>
<path d="M106.29 20.4394C106.29 20.9309 105.894 21.3392 105.401 21.3392H89.8191C89.3264 21.3392 88.9307 20.9385 88.9307 20.4394C88.9307 19.9403 89.3264 19.5396 89.8191 19.5396H105.401C105.894 19.5396 106.29 19.9403 106.29 20.4394Z" fill="url(#paint29_linear_101_18449)"/>
<path style="mix-blend-mode:multiply" d="M102.929 47.1474C102.929 48.1682 98.3228 49 92.641 49C86.9592 49 82.3525 48.1758 82.3525 47.1474C82.3525 46.119 86.9592 45.2947 92.641 45.2947C98.3228 45.2947 102.929 46.1265 102.929 47.1474Z" fill="url(#paint30_radial_101_18449)"/>
<path d="M92.6407 28.4471C87.1605 28.4471 82.7031 32.9615 82.7031 38.5118H102.586C102.586 32.9615 98.1284 28.4471 92.6407 28.4471Z" fill="black"/>
<path d="M101.168 38.5118C101.168 43.2757 97.3526 47.1398 92.6489 47.1398C87.9451 47.1398 84.1299 43.2757 84.1299 38.5118C84.1299 33.748 87.9451 29.8839 92.6489 29.8839C97.3526 29.8839 101.168 33.748 101.168 38.5118Z" fill="url(#paint31_radial_101_18449)"/>
<path d="M92.6415 43.548C89.9014 43.548 87.6689 41.287 87.6689 38.5119C87.6689 35.7367 89.9014 33.4758 92.6415 33.4758C95.3816 33.4758 97.614 35.7367 97.614 38.5119C97.614 41.287 95.3816 43.548 92.6415 43.548Z" fill="url(#paint32_radial_101_18449)"/>
<path style="mix-blend-mode:multiply" d="M92.6415 43.548C89.9014 43.548 87.6689 41.287 87.6689 38.5119C87.6689 35.7367 89.9014 33.4758 92.6415 33.4758C95.3816 33.4758 97.614 35.7367 97.614 38.5119C97.614 41.287 95.3816 43.548 92.6415 43.548Z" fill="url(#paint33_linear_101_18449)"/>
<path d="M92.6412 39.9486C91.8573 39.9486 91.2227 39.3058 91.2227 38.5119C91.2227 37.7179 91.8573 37.0751 92.6412 37.0751C93.4252 37.0751 94.0598 37.7179 94.0598 38.5119C94.0598 39.3058 93.4252 39.9486 92.6412 39.9486Z" fill="#1C2426"/>
<path d="M112.367 18.8287V25.1049C112.367 26.4887 113.472 27.6078 114.839 27.6078V16.3333C113.472 16.3333 112.367 17.4524 112.367 18.8362V18.8287Z" fill="url(#paint34_linear_101_18449)"/>
<path style="mix-blend-mode:screen" d="M113.009 19.6454V24.2883C113.009 25.3091 113.823 26.8744 114.831 26.8744V17.0668C113.823 17.0668 113.009 18.6321 113.009 19.6529V19.6454Z" fill="url(#paint35_linear_101_18449)"/>
<path style="mix-blend-mode:screen" d="M114.674 19.6756C114.674 19.7437 114.614 19.8042 114.547 19.8042H113.644C113.576 19.8042 113.517 19.7437 113.517 19.6756C113.517 19.6076 113.576 19.5471 113.644 19.5471H114.547C114.614 19.5471 114.674 19.6076 114.674 19.6756Z" fill="url(#paint36_linear_101_18449)"/>
<path style="mix-blend-mode:screen" d="M114.674 20.4393C114.674 20.5074 114.614 20.5679 114.547 20.5679H113.644C113.576 20.5679 113.517 20.515 113.517 20.4393C113.517 20.3713 113.576 20.3108 113.644 20.3108H114.547C114.614 20.3108 114.674 20.3637 114.674 20.4393Z" fill="url(#paint37_linear_101_18449)"/>
<path style="mix-blend-mode:screen" d="M114.674 21.2031C114.674 21.2712 114.614 21.3241 114.547 21.3241H113.644C113.576 21.3241 113.517 21.2712 113.517 21.2031C113.517 21.1351 113.576 21.0746 113.644 21.0746H114.547C114.614 21.0746 114.674 21.1351 114.674 21.2031Z" fill="url(#paint38_linear_101_18449)"/>
<path style="mix-blend-mode:screen" d="M114.674 21.9744C114.674 22.0424 114.614 22.1029 114.547 22.1029H113.644C113.576 22.1029 113.517 22.05 113.517 21.9744C113.517 21.9063 113.576 21.8534 113.644 21.8534H114.547C114.614 21.8534 114.674 21.9063 114.674 21.9744Z" fill="url(#paint39_linear_101_18449)"/>
<path style="mix-blend-mode:screen" d="M114.674 22.7381C114.674 22.8062 114.614 22.8667 114.547 22.8667H113.644C113.576 22.8667 113.517 22.8137 113.517 22.7381C113.517 22.6701 113.576 22.6096 113.644 22.6096H114.547C114.614 22.6096 114.674 22.6625 114.674 22.7381Z" fill="url(#paint40_linear_101_18449)"/>
<path style="mix-blend-mode:screen" d="M114.674 23.5019C114.674 23.57 114.614 23.6229 114.547 23.6229H113.644C113.576 23.6229 113.517 23.57 113.517 23.5019C113.517 23.4338 113.576 23.3734 113.644 23.3734H114.547C114.614 23.3734 114.674 23.4263 114.674 23.5019Z" fill="url(#paint41_linear_101_18449)"/>
<path style="mix-blend-mode:overlay" d="M113.502 20.2427V22.9271C113.502 23.6757 114.099 24.2807 114.838 24.2807V18.8892C114.099 18.8892 113.502 19.4941 113.502 20.2427Z" fill="url(#paint42_linear_101_18449)"/>
<path d="M55.6904 16.4392V3.35742H105.632C107.573 3.35742 109.149 4.95295 109.149 6.919V16.4392H55.6904Z" fill="#28272B"/>
<path d="M56.751 15.373V4.42365H105.64C106.999 4.42365 108.104 5.54278 108.104 6.91901V15.373H56.751Z" fill="url(#paint43_linear_101_18449)"/>
<path d="M88.5797 3.35742H86.4668V16.4392H88.5797V3.35742Z" fill="#28272B"/>
<path d="M18.9642 23.033H15.3655C14.5591 24.4924 13.708 26.3677 13.4541 26.95H18.9717C20.0393 26.95 20.9054 26.0728 20.9054 24.9915C20.9054 23.9102 20.0393 23.033 18.9717 23.033H18.9642Z" fill="url(#paint44_linear_101_18449)"/>
<path d="M18.9646 23.3884H15.1718C14.5521 24.5454 13.9398 25.8687 13.6113 26.587H18.9646C19.8382 26.587 20.5475 25.8687 20.5475 24.9839C20.5475 24.0992 19.8382 23.3809 18.9646 23.3809V23.3884Z" fill="url(#paint45_linear_101_18449)"/>
<path d="M18.5167 25.3469C18.1808 26.0199 17.5909 26.4055 17.2102 26.2089C16.8294 26.0123 16.792 25.3015 17.128 24.6285C17.464 23.9555 18.0538 23.5699 18.4346 23.7665C18.8154 23.9631 18.8527 24.6663 18.5167 25.3469Z" fill="#969696"/>
<path d="M16.0522 25.2033C15.8506 25.6041 15.4997 25.8309 15.2757 25.7175C15.0442 25.5965 15.0218 25.1806 15.2234 24.7798C15.425 24.3791 15.7759 24.1522 16.0074 24.2656C16.2313 24.3866 16.2612 24.8025 16.0522 25.2108V25.2033Z" fill="#A8A8A8"/>
<defs>
<radialGradient id="paint0_radial_101_18449" cx="0" cy="0" r="1" gradientUnits="userSpaceOnUse" gradientTransform="translate(33.1205 134.649) scale(10.1093 1.74056)">
<stop stop-color="#545454"/>
<stop offset="0.16" stop-color="#7D7D7D"/>
<stop offset="0.35" stop-color="#ABABAB"/>
<stop offset="0.54" stop-color="#CFCFCF"/>
<stop offset="0.72" stop-color="#E9E9E9"/>
<stop offset="0.88" stop-color="#F9F9F9"/>
<stop offset="1" stop-color="white"/>
</radialGradient>
<radialGradient id="paint1_radial_101_18449" cx="0" cy="0" r="1" gradientUnits="userSpaceOnUse" gradientTransform="translate(65.9653 129.218) scale(64.5983 1.74056)">
<stop stop-color="#545454"/>
<stop offset="0.16" stop-color="#7D7D7D"/>
<stop offset="0.35" stop-color="#ABABAB"/>
<stop offset="0.54" stop-color="#CFCFCF"/>
<stop offset="0.72" stop-color="#E9E9E9"/>
<stop offset="0.88" stop-color="#F9F9F9"/>
<stop offset="1" stop-color="white"/>
</radialGradient>
<linearGradient id="paint2_linear_101_18449" x1="85.9069" y1="-0.650309" x2="85.9069" y2="37.8691" gradientUnits="userSpaceOnUse">
<stop stop-color="white"/>
<stop offset="0.03" stop-color="#FAFAFA"/>
<stop offset="0.09" stop-color="#F2F2F2"/>
<stop offset="0.26" stop-color="#FAFAFA"/>
<stop offset="0.48" stop-color="white"/>
<stop offset="0.71" stop-color="#FDFDFD"/>
<stop offset="0.8" stop-color="#F6F6F6"/>
<stop offset="0.82" stop-color="#F2F2F2"/>
<stop offset="0.93" stop-color="#F0F0F0"/>
<stop offset="0.97" stop-color="#E9E9E9"/>
<stop offset="0.99" stop-color="#DDDDDD"/>
<stop offset="1" stop-color="#D9D9D9"/>
</linearGradient>
<linearGradient id="paint3_linear_101_18449" x1="85.9069" y1="-0.650309" x2="85.9069" y2="37.8691" gradientUnits="userSpaceOnUse">
<stop offset="0.94" stop-color="#FAFAFA"/>
<stop offset="1" stop-color="#E6E6E6"/>
</linearGradient>
<linearGradient id="paint4_linear_101_18449" x1="23.22" y1="1.3838" x2="56.6881" y2="38.3842" gradientUnits="userSpaceOnUse">
<stop stop-color="#E6E6E6"/>
<stop offset="0.28" stop-color="#FAFAFA"/>
<stop offset="0.42" stop-color="#F7F7F7"/>
</linearGradient>
<linearGradient id="paint5_linear_101_18449" x1="35.1735" y1="-1.10401" x2="35.1735" y2="37.0222" gradientUnits="userSpaceOnUse">
<stop offset="0.94" stop-color="#FAFAFA"/>
<stop offset="1" stop-color="#E6E6E6"/>
</linearGradient>
<linearGradient id="paint6_linear_101_18449" x1="68.0027" y1="29.8839" x2="68.0027" y2="30.8594" gradientUnits="userSpaceOnUse">
<stop stop-color="#B5B5B5"/>
<stop offset="0.06" stop-color="#C2C2C2"/>
<stop offset="0.18" stop-color="#E5E5E5"/>
<stop offset="0.21" stop-color="#F2F2F2"/>
<stop offset="0.53" stop-color="#E8E8E8"/>
<stop offset="0.76" stop-color="#DEDEDE"/>
<stop offset="0.83" stop-color="#E8E8E8"/>
<stop offset="0.92" stop-color="white"/>
<stop offset="1" stop-color="white"/>
</linearGradient>
<linearGradient id="paint7_linear_101_18449" x1="19.696" y1="29.831" x2="19.696" y2="39.3663" gradientUnits="userSpaceOnUse">
<stop stop-color="#5F5A5E"/>
<stop offset="0.28" stop-color="#262529"/>
<stop offset="0.48" stop-color="#29272B"/>
<stop offset="0.63" stop-color="#323134"/>
<stop offset="0.76" stop-color="#424144"/>
<stop offset="0.81" stop-color="#4A484B"/>
</linearGradient>
<radialGradient id="paint8_radial_101_18449" cx="0" cy="0" r="1" gradientUnits="userSpaceOnUse" gradientTransform="translate(34.0092 38.5118) scale(8.51898 8.62793)">
<stop offset="0.7" stop-color="#504E51"/>
<stop offset="0.77" stop-color="#484649"/>
<stop offset="0.88" stop-color="#333234"/>
<stop offset="1" stop-color="#141414"/>
</radialGradient>
<radialGradient id="paint9_radial_101_18449" cx="0" cy="0" r="1" gradientUnits="userSpaceOnUse" gradientTransform="translate(34.0086 38.5119) scale(4.97251 5.03611)">
<stop stop-color="white"/>
<stop offset="0.1" stop-color="#DCDCDC"/>
<stop offset="0.19" stop-color="#C5C5C5"/>
<stop offset="0.25" stop-color="#BDBDBD"/>
<stop offset="0.28" stop-color="#C9C9C9"/>
<stop offset="0.37" stop-color="#DEDEDE"/>
<stop offset="0.45" stop-color="#EBEBEB"/>
<stop offset="0.52" stop-color="#F0F0F0"/>
<stop offset="0.68" stop-color="#F0F0F0"/>
<stop offset="0.7" stop-color="#F0F0F0"/>
<stop offset="0.85" stop-color="#EEEEEE"/>
<stop offset="0.9" stop-color="#E7E7E7"/>
<stop offset="0.93" stop-color="#DBDBDB"/>
<stop offset="0.96" stop-color="#CACACA"/>
<stop offset="0.99" stop-color="#B4B4B4"/>
<stop offset="1" stop-color="#A8A8A8"/>
</radialGradient>
<linearGradient id="paint10_linear_101_18449" x1="30.9923" y1="34.7008" x2="37.24" y2="42.4043" gradientUnits="userSpaceOnUse">
<stop stop-color="white"/>
<stop offset="0.11" stop-color="#FDFDFD"/>
<stop offset="0.16" stop-color="#F6F6F6"/>
<stop offset="0.19" stop-color="#E9E9E9"/>
<stop offset="0.22" stop-color="#D8D8D8"/>
<stop offset="0.24" stop-color="#C2C2C2"/>
<stop offset="0.25" stop-color="#C0C0C0"/>
<stop offset="0.27" stop-color="#D7D7D7"/>
<stop offset="0.3" stop-color="#E9E9E9"/>
<stop offset="0.34" stop-color="#F5F5F5"/>
<stop offset="0.38" stop-color="#FCFCFC"/>
<stop offset="0.49" stop-color="white"/>
<stop offset="0.93" stop-color="white"/>
<stop offset="1" stop-color="white"/>
</linearGradient>
<linearGradient id="paint11_linear_101_18449" x1="110.082" y1="29.2942" x2="110.082" y2="38.4287" gradientUnits="userSpaceOnUse">
<stop stop-color="#5F5A5E"/>
<stop offset="0.28" stop-color="#28282B"/>
<stop offset="0.48" stop-color="#2B2A2D"/>
<stop offset="0.64" stop-color="#343336"/>
<stop offset="0.78" stop-color="#444346"/>
<stop offset="0.81" stop-color="#4A484B"/>
</linearGradient>
<linearGradient id="paint12_linear_101_18449" x1="42.0794" y1="3.35738" x2="42.0794" y2="16.4392" gradientUnits="userSpaceOnUse">
<stop stop-color="#A3DFFA"/>
<stop offset="1" stop-color="#53B8E6"/>
</linearGradient>
<linearGradient id="paint13_linear_101_18449" x1="32.1572" y1="3.58425" x2="32.1572" y2="16.5677" gradientUnits="userSpaceOnUse">
<stop stop-color="#5F5A5E"/>
<stop offset="0.28" stop-color="#313035"/>
<stop offset="0.51" stop-color="#343237"/>
<stop offset="0.68" stop-color="#3D3C40"/>
<stop offset="0.81" stop-color="#4A484B"/>
</linearGradient>
<linearGradient id="paint14_linear_101_18449" x1="31.0368" y1="9.13458" x2="32.2559" y2="10.4803" gradientUnits="userSpaceOnUse">
<stop stop-color="#A3DFFA"/>
<stop offset="1" stop-color="#53B8E6"/>
</linearGradient>
<linearGradient id="paint15_linear_101_18449" x1="32.5306" y1="14.3672" x2="32.5306" y2="16.5677" gradientUnits="userSpaceOnUse">
<stop/>
<stop offset="1" stop-color="#333333"/>
</linearGradient>
<linearGradient id="paint16_linear_101_18449" x1="34.6589" y1="-11.214" x2="34.6589" y2="17.1576" gradientUnits="userSpaceOnUse">
<stop stop-color="#5F5A5E"/>
<stop offset="0.28" stop-color="#313035"/>
<stop offset="0.46" stop-color="#343237"/>
<stop offset="0.59" stop-color="#3D3C40"/>
<stop offset="0.72" stop-color="#4D4B50"/>
<stop offset="0.81" stop-color="#605D61"/>
</linearGradient>
<linearGradient id="paint17_linear_101_18449" x1="33.755" y1="11.2972" x2="33.755" y2="17.5432" gradientUnits="userSpaceOnUse">
<stop stop-color="#5F5A5E"/>
<stop offset="0.28" stop-color="#313035"/>
<stop offset="0.51" stop-color="#343237"/>
<stop offset="0.68" stop-color="#3D3C40"/>
<stop offset="0.81" stop-color="#4A484B"/>
</linearGradient>
<linearGradient id="paint18_linear_101_18449" x1="33.2996" y1="11.5921" x2="33.2996" y2="12.5979" gradientUnits="userSpaceOnUse">
<stop/>
<stop offset="0.28" stop-color="#1F1E21"/>
<stop offset="0.48" stop-color="#1C1B1D"/>
<stop offset="0.64" stop-color="#131214"/>
<stop offset="0.78" stop-color="#030304"/>
<stop offset="0.81"/>
</linearGradient>
<linearGradient id="paint19_linear_101_18449" x1="17.2922" y1="31.5249" x2="16.2733" y2="31.1254" gradientUnits="userSpaceOnUse">
<stop offset="0.01" stop-color="#FF8000"/>
<stop offset="0.1" stop-color="#FF8500"/>
<stop offset="0.21" stop-color="#FF9600"/>
<stop offset="0.34" stop-color="#FFB000"/>
<stop offset="0.44" stop-color="#FFCC00"/>
<stop offset="0.79" stop-color="#FFA300"/>
<stop offset="1" stop-color="#FF8900"/>
</linearGradient>
<linearGradient id="paint20_linear_101_18449" x1="49.5012" y1="18.6245" x2="49.5012" y2="20.6208" gradientUnits="userSpaceOnUse">
<stop offset="0.4" stop-color="#7D7D7D"/>
<stop offset="0.79" stop-color="#F2F2F2"/>
<stop offset="1" stop-color="#A8A8A8"/>
</linearGradient>
<linearGradient id="paint21_linear_101_18449" x1="49.4949" y1="19.2519" x2="49.4975" y2="19.9703" gradientUnits="userSpaceOnUse">
<stop stop-color="#999999"/>
<stop offset="0.26" stop-color="#EBEBEB"/>
<stop offset="0.69" stop-color="#2B2B2B"/>
</linearGradient>
<radialGradient id="paint22_radial_101_18449" cx="0" cy="0" r="1" gradientUnits="userSpaceOnUse" gradientTransform="translate(51.1137 19.6105) scale(0.194121 0.230028)">
<stop stop-color="#9E9E9E"/>
<stop offset="0.28" stop-color="#FAFAFA"/>
<stop offset="0.5" stop-color="#F7F7F7"/>
<stop offset="0.66" stop-color="#F4F4F4"/>
<stop offset="0.77" stop-color="#EBEBEB"/>
<stop offset="0.86" stop-color="#DCDCDC"/>
<stop offset="0.94" stop-color="#C6C6C6"/>
<stop offset="1" stop-color="#B3B3B3"/>
</radialGradient>
<linearGradient id="paint23_linear_101_18449" x1="59.1701" y1="-2.82195e-05" x2="59.1701" y2="-2.82195e-05" gradientUnits="userSpaceOnUse">
<stop offset="0.4" stop-color="#7D7D7D"/>
<stop offset="0.79" stop-color="#F2F2F2"/>
<stop offset="1" stop-color="#A8A8A8"/>
</linearGradient>
<linearGradient id="paint24_linear_101_18449" x1="59.1639" y1="19.248" x2="59.1664" y2="19.9663" gradientUnits="userSpaceOnUse">
<stop stop-color="#999999"/>
<stop offset="0.26" stop-color="#EBEBEB"/>
<stop offset="0.69" stop-color="#2B2B2B"/>
</linearGradient>
<radialGradient id="paint25_radial_101_18449" cx="0" cy="0" r="1" gradientUnits="userSpaceOnUse" gradientTransform="translate(60.7826 -3.12687) scale(0.373315 0.442361)">
<stop stop-color="#9E9E9E"/>
<stop offset="0.28" stop-color="#FAFAFA"/>
<stop offset="0.5" stop-color="#F7F7F7"/>
<stop offset="0.66" stop-color="#F4F4F4"/>
<stop offset="0.77" stop-color="#EBEBEB"/>
<stop offset="0.86" stop-color="#DCDCDC"/>
<stop offset="0.94" stop-color="#C6C6C6"/>
<stop offset="1" stop-color="#B3B3B3"/>
</radialGradient>
<linearGradient id="paint26_linear_101_18449" x1="109.559" y1="31.0635" x2="108.541" y2="30.6641" gradientUnits="userSpaceOnUse">
<stop offset="0.01" stop-color="#FF8000"/>
<stop offset="0.1" stop-color="#FF8500"/>
<stop offset="0.21" stop-color="#FF9600"/>
<stop offset="0.34" stop-color="#FFB000"/>
<stop offset="0.44" stop-color="#FFCC00"/>
<stop offset="0.79" stop-color="#FFA300"/>
<stop offset="1" stop-color="#FF8900"/>
</linearGradient>
<linearGradient id="paint27_linear_101_18449" x1="63.3286" y1="37.786" x2="63.3286" y2="39.3739" gradientUnits="userSpaceOnUse">
<stop stop-color="#5F5A5E"/>
<stop offset="0.28" stop-color="#262529"/>
<stop offset="0.48" stop-color="#29272B"/>
<stop offset="0.63" stop-color="#323134"/>
<stop offset="0.76" stop-color="#424144"/>
<stop offset="0.81" stop-color="#4A484B"/>
</linearGradient>
<linearGradient id="paint28_linear_101_18449" x1="43.3935" y1="22.4735" x2="43.3935" y2="24.2656" gradientUnits="userSpaceOnUse">
<stop stop-color="#B5B5B5"/>
<stop offset="0.06" stop-color="#C2C2C2"/>
<stop offset="0.18" stop-color="#E5E5E5"/>
<stop offset="0.21" stop-color="#F2F2F2"/>
<stop offset="0.53" stop-color="#E8E8E8"/>
<stop offset="0.76" stop-color="#DEDEDE"/>
<stop offset="0.83" stop-color="#E8E8E8"/>
<stop offset="0.92" stop-color="white"/>
<stop offset="1" stop-color="white"/>
</linearGradient>
<linearGradient id="paint29_linear_101_18449" x1="97.6139" y1="19.532" x2="97.6139" y2="21.3241" gradientUnits="userSpaceOnUse">
<stop stop-color="#B5B5B5"/>
<stop offset="0.06" stop-color="#C2C2C2"/>
<stop offset="0.18" stop-color="#E5E5E5"/>
<stop offset="0.21" stop-color="#F2F2F2"/>
<stop offset="0.53" stop-color="#E8E8E8"/>
<stop offset="0.76" stop-color="#DEDEDE"/>
<stop offset="0.83" stop-color="#E8E8E8"/>
<stop offset="0.92" stop-color="white"/>
<stop offset="1" stop-color="white"/>
</linearGradient>
<radialGradient id="paint30_radial_101_18449" cx="0" cy="0" r="1" gradientUnits="userSpaceOnUse" gradientTransform="translate(92.641 -5178.18) scale(10.1093 1.74056)">
<stop stop-color="#545454"/>
<stop offset="0.16" stop-color="#7D7D7D"/>
<stop offset="0.35" stop-color="#ABABAB"/>
<stop offset="0.54" stop-color="#CFCFCF"/>
<stop offset="0.72" stop-color="#E9E9E9"/>
<stop offset="0.88" stop-color="#F9F9F9"/>
<stop offset="1" stop-color="white"/>
</radialGradient>
<radialGradient id="paint31_radial_101_18449" cx="0" cy="0" r="1" gradientUnits="userSpaceOnUse" gradientTransform="translate(92.6414 0.378051) scale(8.51898 8.62793)">
<stop offset="0.7" stop-color="#504E51"/>
<stop offset="0.77" stop-color="#484649"/>
<stop offset="0.88" stop-color="#333234"/>
<stop offset="1" stop-color="#141414"/>
</radialGradient>
<radialGradient id="paint32_radial_101_18449" cx="0" cy="0" r="1" gradientUnits="userSpaceOnUse" gradientTransform="translate(92.6415 0.378086) scale(4.97252 5.03611)">
<stop stop-color="white"/>
<stop offset="0.1" stop-color="#DCDCDC"/>
<stop offset="0.19" stop-color="#C5C5C5"/>
<stop offset="0.25" stop-color="#BDBDBD"/>
<stop offset="0.28" stop-color="#C9C9C9"/>
<stop offset="0.37" stop-color="#DEDEDE"/>
<stop offset="0.45" stop-color="#EBEBEB"/>
<stop offset="0.52" stop-color="#F0F0F0"/>
<stop offset="0.68" stop-color="#F0F0F0"/>
<stop offset="0.7" stop-color="#F0F0F0"/>
<stop offset="0.85" stop-color="#EEEEEE"/>
<stop offset="0.9" stop-color="#E7E7E7"/>
<stop offset="0.93" stop-color="#DBDBDB"/>
<stop offset="0.96" stop-color="#CACACA"/>
<stop offset="0.99" stop-color="#B4B4B4"/>
<stop offset="1" stop-color="#A8A8A8"/>
</radialGradient>
<linearGradient id="paint33_linear_101_18449" x1="88.7516" y1="35.283" x2="96.6406" y2="41.6576" gradientUnits="userSpaceOnUse">
<stop stop-color="white"/>
<stop offset="0.07" stop-color="white"/>
<stop offset="0.51" stop-color="white"/>
<stop offset="0.62" stop-color="#FCFCFC"/>
<stop offset="0.66" stop-color="#F5F5F5"/>
<stop offset="0.7" stop-color="#E9E9E9"/>
<stop offset="0.73" stop-color="#D7D7D7"/>
<stop offset="0.75" stop-color="#BDBDBD"/>
<stop offset="0.76" stop-color="#C2C2C2"/>
<stop offset="0.78" stop-color="#D8D8D8"/>
<stop offset="0.81" stop-color="#E9E9E9"/>
<stop offset="0.84" stop-color="#F6F6F6"/>
<stop offset="0.89" stop-color="#FDFDFD"/>
<stop offset="1" stop-color="white"/>
</linearGradient>
<linearGradient id="paint34_linear_101_18449" x1="112.367" y1="21.9668" x2="114.839" y2="21.9668" gradientUnits="userSpaceOnUse">
<stop stop-color="#DB2A24"/>
<stop offset="1" stop-color="#FF6963"/>
</linearGradient>
<linearGradient id="paint35_linear_101_18449" x1="113.009" y1="21.9668" x2="114.838" y2="21.9668" gradientUnits="userSpaceOnUse">
<stop stop-color="#AB0700"/>
<stop offset="0.17" stop-color="#7C0500"/>
<stop offset="0.36" stop-color="#500300"/>
<stop offset="0.54" stop-color="#2D0100"/>
<stop offset="0.72" stop-color="#140000"/>
<stop offset="0.87" stop-color="#050000"/>
<stop offset="1"/>
</linearGradient>
<linearGradient id="paint36_linear_101_18449" x1="113.517" y1="19.6756" x2="114.674" y2="19.6756" gradientUnits="userSpaceOnUse">
<stop/>
<stop offset="0.1" stop-color="#050202"/>
<stop offset="0.22" stop-color="#140807"/>
<stop offset="0.36" stop-color="#2D1211"/>
<stop offset="0.51" stop-color="#50211F"/>
<stop offset="0.66" stop-color="#7D3330"/>
<stop offset="0.81" stop-color="#B44A46"/>
<stop offset="0.97" stop-color="#F4645E"/>
<stop offset="1" stop-color="#FF6963"/>
</linearGradient>
<linearGradient id="paint37_linear_101_18449" x1="-0.000309925" y1="20.4393" x2="0.746315" y2="20.4393" gradientUnits="userSpaceOnUse">
<stop/>
<stop offset="0.1" stop-color="#050202"/>
<stop offset="0.22" stop-color="#140807"/>
<stop offset="0.36" stop-color="#2D1211"/>
<stop offset="0.51" stop-color="#50211F"/>
<stop offset="0.66" stop-color="#7D3330"/>
<stop offset="0.81" stop-color="#B44A46"/>
<stop offset="0.97" stop-color="#F4645E"/>
<stop offset="1" stop-color="#FF6963"/>
</linearGradient>
<linearGradient id="paint38_linear_101_18449" x1="-0.000309925" y1="21.2031" x2="0.746315" y2="21.2031" gradientUnits="userSpaceOnUse">
<stop/>
<stop offset="0.1" stop-color="#050202"/>
<stop offset="0.22" stop-color="#140807"/>
<stop offset="0.36" stop-color="#2D1211"/>
<stop offset="0.51" stop-color="#50211F"/>
<stop offset="0.66" stop-color="#7D3330"/>
<stop offset="0.81" stop-color="#B44A46"/>
<stop offset="0.97" stop-color="#F4645E"/>
<stop offset="1" stop-color="#FF6963"/>
</linearGradient>
<linearGradient id="paint39_linear_101_18449" x1="-0.000309925" y1="21.9744" x2="0.746315" y2="21.9744" gradientUnits="userSpaceOnUse">
<stop/>
<stop offset="0.1" stop-color="#050202"/>
<stop offset="0.22" stop-color="#140807"/>
<stop offset="0.36" stop-color="#2D1211"/>
<stop offset="0.51" stop-color="#50211F"/>
<stop offset="0.66" stop-color="#7D3330"/>
<stop offset="0.81" stop-color="#B44A46"/>
<stop offset="0.97" stop-color="#F4645E"/>
<stop offset="1" stop-color="#FF6963"/>
</linearGradient>
<linearGradient id="paint40_linear_101_18449" x1="-0.000309925" y1="22.7381" x2="0.746315" y2="22.7381" gradientUnits="userSpaceOnUse">
<stop/>
<stop offset="0.1" stop-color="#050202"/>
<stop offset="0.22" stop-color="#140807"/>
<stop offset="0.36" stop-color="#2D1211"/>
<stop offset="0.51" stop-color="#50211F"/>
<stop offset="0.66" stop-color="#7D3330"/>
<stop offset="0.81" stop-color="#B44A46"/>
<stop offset="0.97" stop-color="#F4645E"/>
<stop offset="1" stop-color="#FF6963"/>
</linearGradient>
<linearGradient id="paint41_linear_101_18449" x1="-0.000309925" y1="23.5019" x2="0.746315" y2="23.5019" gradientUnits="userSpaceOnUse">
<stop/>
<stop offset="0.1" stop-color="#050202"/>
<stop offset="0.22" stop-color="#140807"/>
<stop offset="0.36" stop-color="#2D1211"/>
<stop offset="0.51" stop-color="#50211F"/>
<stop offset="0.66" stop-color="#7D3330"/>
<stop offset="0.81" stop-color="#B44A46"/>
<stop offset="0.97" stop-color="#F4645E"/>
<stop offset="1" stop-color="#FF6963"/>
</linearGradient>
<linearGradient id="paint42_linear_101_18449" x1="113.502" y1="21.5887" x2="114.838" y2="21.5887" gradientUnits="userSpaceOnUse">
<stop/>
<stop offset="0.1" stop-color="#050202"/>
<stop offset="0.22" stop-color="#140807"/>
<stop offset="0.36" stop-color="#2D1211"/>
<stop offset="0.51" stop-color="#50211F"/>
<stop offset="0.66" stop-color="#7D3330"/>
<stop offset="0.81" stop-color="#B44A46"/>
<stop offset="0.97" stop-color="#F4645E"/>
<stop offset="1" stop-color="#FF6963"/>
</linearGradient>
<linearGradient id="paint43_linear_101_18449" x1="82.4199" y1="3.91701" x2="82.4199" y2="16.0082" gradientUnits="userSpaceOnUse">
<stop stop-color="#5F5A5E"/>
<stop offset="0.28" stop-color="#262529"/>
<stop offset="0.55" stop-color="#29272B"/>
<stop offset="0.75" stop-color="#323134"/>
<stop offset="0.94" stop-color="#424144"/>
<stop offset="1" stop-color="#4A484B"/>
</linearGradient>
<linearGradient id="paint44_linear_101_18449" x1="16.463" y1="25.0142" x2="14.5077" y2="24.2523" gradientUnits="userSpaceOnUse">
<stop offset="0.01" stop-color="#292929"/>
<stop offset="0.12" stop-color="#2E2E2E"/>
<stop offset="0.25" stop-color="#3F3F3F"/>
<stop offset="0.41" stop-color="#5A5A5A"/>
<stop offset="0.58" stop-color="#7F7F7F"/>
<stop offset="0.76" stop-color="#B0B0B0"/>
<stop offset="0.94" stop-color="#EAEAEA"/>
<stop offset="1" stop-color="white"/>
</linearGradient>
<linearGradient id="paint45_linear_101_18449" x1="16.3738" y1="24.9613" x2="14.5384" y2="24.2437" gradientUnits="userSpaceOnUse">
<stop stop-color="#D4D4D4"/>
<stop offset="0.16" stop-color="#D0D0D0"/>
<stop offset="0.31" stop-color="#C5C5C5"/>
<stop offset="0.46" stop-color="#B2B2B2"/>
<stop offset="0.6" stop-color="#989898"/>
<stop offset="0.65" stop-color="#8E8E8E"/>
<stop offset="0.77" stop-color="#7E7E7E"/>
<stop offset="0.81" stop-color="#787878"/>
<stop offset="0.99" stop-color="#292929"/>
</linearGradient>
</defs>
</svg>
