<svg width="26" height="26" viewBox="0 0 26 26" fill="none" xmlns="http://www.w3.org/2000/svg">
    <path d="M13 2.16699C10.2228 2.17491 7.55464 3.24915 5.54669 5.16783V3.25033C5.54669 2.96301 5.43255 2.68746 5.22939 2.48429C5.02622 2.28113 4.75067 2.16699 4.46335 2.16699C4.17604 2.16699 3.90049 2.28113 3.69732 2.48429C3.49416 2.68746 3.38002 2.96301 3.38002 3.25033V8.12533C3.38002 8.41264 3.49416 8.68819 3.69732 8.89136C3.90049 9.09452 4.17604 9.20866 4.46335 9.20866H9.33835C9.62567 9.20866 9.90122 9.09452 10.1044 8.89136C10.3076 8.68819 10.4217 8.41264 10.4217 8.12533C10.4217 7.83801 10.3076 7.56246 10.1044 7.35929C9.90122 7.15613 9.62567 7.04199 9.33835 7.04199H6.73835C8.13128 5.58638 9.98782 4.66154 11.9888 4.42647C13.9897 4.1914 16.01 4.6608 17.7024 5.75396C19.3947 6.84712 20.6534 8.49573 21.2619 10.4163C21.8704 12.337 21.7907 14.4096 21.0366 16.2778C20.2825 18.1461 18.9011 19.6933 17.1299 20.6533C15.3586 21.6134 13.3082 21.9264 11.3312 21.5384C9.3542 21.1505 7.57411 20.0859 6.29699 18.5277C5.01988 16.9695 4.32554 15.015 4.33335 13.0003C4.33335 12.713 4.21922 12.4375 4.01605 12.2343C3.81289 12.0311 3.53734 11.917 3.25002 11.917C2.9627 11.917 2.68715 12.0311 2.48399 12.2343C2.28082 12.4375 2.16669 12.713 2.16669 13.0003C2.16669 15.143 2.80205 17.2375 3.99243 19.019C5.18282 20.8005 6.87475 22.1891 8.85428 23.009C10.8338 23.829 13.012 24.0435 15.1135 23.6255C17.215 23.2075 19.1453 22.1757 20.6603 20.6607C22.1754 19.1456 23.2072 17.2153 23.6252 15.1138C24.0432 13.0123 23.8287 10.8341 23.0087 8.85459C22.1888 6.87506 20.8002 5.18312 19.0187 3.99274C17.2372 2.80236 15.1427 2.16699 13 2.16699ZM13 8.66699C12.7127 8.66699 12.4372 8.78113 12.234 8.98429C12.0308 9.18746 11.9167 9.46301 11.9167 9.75033V13.0003C11.9167 13.2876 12.0308 13.5632 12.234 13.7664C12.4372 13.9695 12.7127 14.0837 13 14.0837H15.1667C15.454 14.0837 15.7296 13.9695 15.9327 13.7664C16.1359 13.5632 16.25 13.2876 16.25 13.0003C16.25 12.713 16.1359 12.4375 15.9327 12.2343C15.7296 12.0311 15.454 11.917 15.1667 11.917H14.0834V9.75033C14.0834 9.46301 13.9692 9.18746 13.7661 8.98429C13.5629 8.78113 13.2873 8.66699 13 8.66699Z" fill="#7A7A7A"/>
</svg>
