<svg width="17" height="13" viewBox="0 0 17 13" fill="none" xmlns="http://www.w3.org/2000/svg">
<path fill-rule="evenodd" clip-rule="evenodd" d="M2 1C1.72414 1 1.5 1.22414 1.5 1.5V11.5C1.5 11.7759 1.72414 12 2 12H15C15.2759 12 15.5 11.7759 15.5 11.5V1.5C15.5 1.22414 15.2759 1 15 1H2ZM0.5 1.5C0.5 0.671858 1.17186 0 2 0H15C15.8281 0 16.5 0.671858 16.5 1.5V11.5C16.5 12.3281 15.8281 13 15 13H2C1.17186 13 0.5 12.3281 0.5 11.5V1.5ZM8.6 7.55C8.6 6.69285 7.97945 5.98095 7.16465 5.83185C7.40195 5.53295 7.55 5.1602 7.55 4.75C7.55 3.78505 6.76495 3 5.8 3C4.83505 3 4.05 3.78505 4.05 4.75C4.05 5.1602 4.1977 5.53295 4.43535 5.83185C3.62055 5.98095 3 6.69285 3 7.55V10H8.6V7.55ZM5.8 3.7C6.3789 3.7 6.85 4.1711 6.85 4.75C6.85 5.3289 6.3789 5.8 5.8 5.8C5.2211 5.8 4.75 5.3289 4.75 4.75C4.75 4.1711 5.2211 3.7 5.8 3.7ZM3.7 9.3V7.55C3.7 6.9711 4.1711 6.5 4.75 6.5H6.85C7.4289 6.5 7.9 6.9711 7.9 7.55V9.3H3.7ZM10 4H12.45V4.7H10V4ZM13.85 5.74988H10V6.44988H13.85V5.74988ZM10 7.49988H12.8V8.19988H10V7.49988Z" fill="#979797"/>
</svg>
