<svg width="24" height="26" viewBox="0 0 24 26" fill="none" xmlns="http://www.w3.org/2000/svg">
<path fill-rule="evenodd" clip-rule="evenodd" d="M24 3.42678C24 1.54043 22.4162 0 20.4644 0H12.4142C11.9636 0 11.5983 0.365291 11.5983 0.8159C11.5983 1.26651 11.9636 1.6318 12.4142 1.6318H20.4644C21.5587 1.6318 22.3682 2.48468 22.3682 3.42678V22.4644C22.3682 23.5368 21.5368 24.3682 20.4644 24.3682H12.4142C11.9636 24.3682 11.5983 24.7335 11.5983 25.1841C11.5983 25.6347 11.9636 26 12.4142 26H20.4644C22.4381 26 24 24.4381 24 22.4644V3.42678ZM17.9078 13.0002C17.9078 12.5496 17.5426 12.1843 17.0919 12.1843H3.39654L6.13739 9.44346C6.45601 9.12483 6.45601 8.60823 6.13739 8.28961C5.81876 7.97098 5.30216 7.97098 4.98353 8.28961L0.857708 12.4154C0.771252 12.4996 0.703386 12.6027 0.66086 12.7181C0.646866 12.7561 0.635616 12.7954 0.62735 12.8358C0.624405 12.8502 0.62184 12.8647 0.619663 12.8793C0.582788 13.1264 0.659439 13.3872 0.84964 13.5774L4.98353 17.7112C5.30216 18.0299 5.81876 18.0299 6.13739 17.7112C6.45601 17.3926 6.45601 16.876 6.13739 16.5574L3.39611 13.8161H17.0919C17.5426 13.8161 17.9078 13.4508 17.9078 13.0002Z" fill="#545456"/>
</svg>
