<svg width="26" height="26" viewBox="0 0 26 26" fill="none" xmlns="http://www.w3.org/2000/svg">
    <path d="M20.5834 7.58333H19.5V6.5C19.5 5.63805 19.1576 4.8114 18.5481 4.2019C17.9386 3.59241 17.112 3.25 16.25 3.25H5.41669C4.55473 3.25 3.72808 3.59241 3.11859 4.2019C2.5091 4.8114 2.16669 5.63805 2.16669 6.5V19.5C2.16669 20.362 2.5091 21.1886 3.11859 21.7981C3.72808 22.4076 4.55473 22.75 5.41669 22.75H20.5834C21.4453 22.75 22.272 22.4076 22.8814 21.7981C23.4909 21.1886 23.8334 20.362 23.8334 19.5V10.8333C23.8334 9.97138 23.4909 9.14473 22.8814 8.53524C22.272 7.92574 21.4453 7.58333 20.5834 7.58333ZM5.41669 5.41667H16.25C16.5373 5.41667 16.8129 5.5308 17.0161 5.73397C17.2192 5.93713 17.3334 6.21268 17.3334 6.5V7.58333H5.41669C5.12937 7.58333 4.85382 7.4692 4.65065 7.26603C4.44749 7.06287 4.33335 6.78732 4.33335 6.5C4.33335 6.21268 4.44749 5.93713 4.65065 5.73397C4.85382 5.5308 5.12937 5.41667 5.41669 5.41667ZM21.6667 16.25H20.5834C20.296 16.25 20.0205 16.1359 19.8173 15.9327C19.6142 15.7295 19.5 15.454 19.5 15.1667C19.5 14.8793 19.6142 14.6038 19.8173 14.4006C20.0205 14.1975 20.296 14.0833 20.5834 14.0833H21.6667V16.25ZM21.6667 11.9167H20.5834C19.7214 11.9167 18.8947 12.2591 18.2853 12.8686C17.6758 13.4781 17.3334 14.3047 17.3334 15.1667C17.3334 16.0286 17.6758 16.8553 18.2853 17.4648C18.8947 18.0743 19.7214 18.4167 20.5834 18.4167H21.6667V19.5C21.6667 19.7873 21.5525 20.0629 21.3494 20.266C21.1462 20.4692 20.8707 20.5833 20.5834 20.5833H5.41669C5.12937 20.5833 4.85382 20.4692 4.65065 20.266C4.44749 20.0629 4.33335 19.7873 4.33335 19.5V9.56583C4.68139 9.68827 5.04774 9.75055 5.41669 9.75H20.5834C20.8707 9.75 21.1462 9.86414 21.3494 10.0673C21.5525 10.2705 21.6667 10.546 21.6667 10.8333V11.9167Z" fill="#7A7A7A"/>
</svg>
