<svg width="18" height="12" viewBox="0 0 18 12" fill="none" xmlns="http://www.w3.org/2000/svg">
    <path d="M1.41756 7.00001H14.5876L11.7076 9.88001C11.5206 10.067 11.4155 10.3206 11.4155 10.585C11.4155 10.8494 11.5206 11.103 11.7076 11.29C11.8945 11.477 12.1481 11.582 12.4126 11.582C12.677 11.582 12.9306 11.477 13.1176 11.29L17.7076 6.70001C17.8003 6.6075 17.8738 6.49761 17.924 6.37663C17.9742 6.25566 18 6.12598 18 5.99501C18 5.86404 17.9742 5.73436 17.924 5.61339C17.8738 5.49241 17.8003 5.38252 17.7076 5.29001L13.1176 0.700011C13.025 0.60743 12.9151 0.533989 12.7941 0.483884C12.6731 0.433779 12.5435 0.40799 12.4126 0.40799C12.2816 0.40799 12.152 0.433779 12.031 0.483884C11.91 0.533989 11.8001 0.60743 11.7076 0.700011C11.615 0.792593 11.5415 0.902503 11.4914 1.02347C11.4413 1.14443 11.4155 1.27408 11.4155 1.40501C11.4155 1.53594 11.4413 1.66559 11.4914 1.78655C11.5415 1.90752 11.615 2.01743 11.7076 2.11001L14.5876 5.00001H1.41756C0.867558 5.00001 0.417557 5.45001 0.417557 6.00001C0.417557 6.55001 0.867558 7.00001 1.41756 7.00001Z" fill="white"/>
</svg>
