<svg width="26" height="26" viewBox="0 0 26 26" fill="none" xmlns="http://www.w3.org/2000/svg">
    <path d="M19.5 14.2787V10.8337C19.4984 9.29871 18.9537 7.81383 17.9623 6.642C16.9709 5.47016 15.5968 4.68698 14.0833 4.43116V3.25033C14.0833 2.96301 13.9692 2.68746 13.766 2.48429C13.5628 2.28113 13.2873 2.16699 13 2.16699C12.7127 2.16699 12.4371 2.28113 12.2339 2.48429C12.0308 2.68746 11.9166 2.96301 11.9166 3.25033V4.43116C10.4032 4.68698 9.02905 5.47016 8.03765 6.642C7.04625 7.81383 6.50154 9.29871 6.49998 10.8337V14.2787C5.8678 14.5022 5.32023 14.9157 4.93233 15.4627C4.54443 16.0096 4.3352 16.6631 4.33331 17.3337V19.5003C4.33331 19.7876 4.44745 20.0632 4.65061 20.2664C4.85378 20.4695 5.12933 20.5837 5.41665 20.5837H8.81831C9.06779 21.5016 9.6124 22.312 10.3681 22.8898C11.1239 23.4675 12.0487 23.7806 13 23.7806C13.9513 23.7806 14.8761 23.4675 15.6318 22.8898C16.3876 22.312 16.9322 21.5016 17.1816 20.5837H20.5833C20.8706 20.5837 21.1462 20.4695 21.3493 20.2664C21.5525 20.0632 21.6666 19.7876 21.6666 19.5003V17.3337C21.6648 16.6631 21.4555 16.0096 21.0676 15.4627C20.6797 14.9157 20.1322 14.5022 19.5 14.2787ZM8.66665 10.8337C8.66665 9.68439 9.12319 8.58219 9.93585 7.76953C10.7485 6.95687 11.8507 6.50033 13 6.50033C14.1493 6.50033 15.2515 6.95687 16.0641 7.76953C16.8768 8.58219 17.3333 9.68439 17.3333 10.8337V14.0837H8.66665V10.8337ZM13 21.667C12.6219 21.6647 12.2509 21.5635 11.924 21.3735C11.5972 21.1834 11.3257 20.9111 11.1366 20.5837H14.8633C14.6743 20.9111 14.4028 21.1834 14.0759 21.3735C13.749 21.5635 13.3781 21.6647 13 21.667ZM19.5 18.417H6.49998V17.3337C6.49998 17.0463 6.61412 16.7708 6.81728 16.5676C7.02045 16.3645 7.296 16.2503 7.58331 16.2503H18.4166C18.704 16.2503 18.9795 16.3645 19.1827 16.5676C19.3858 16.7708 19.5 17.0463 19.5 17.3337V18.417Z" fill="#7A7A7A"/>
</svg>
