<svg width="25" height="29" viewBox="0 0 25 29" fill="none" xmlns="http://www.w3.org/2000/svg">
<path d="M11.5 28.1666C13.0583 28.1666 14.3333 26.8916 14.3333 25.3333H8.66663C8.66663 26.8916 9.92746 28.1666 11.5 28.1666ZM20 12.5833C20 8.23413 17.6766 4.59329 13.625 3.62996V2.66663C13.625 1.49079 12.6758 0.541626 11.5 0.541626C10.3241 0.541626 9.37496 1.49079 9.37496 2.66663V3.62996C9.03496 3.71496 8.70913 3.84246 8.39746 3.95579L20 15.5583V12.5833ZM2.16413 1.74579L0.166626 3.74329L4.14746 7.72413C3.41079 9.14079 2.99996 10.7841 2.99996 12.5833V19.6666L1.17246 21.4941C0.279959 22.3866 0.903292 23.9166 2.16413 23.9166H20.34L22.805 26.3816L24.8025 24.3841L2.16413 1.74579Z" fill="#636464" fill-opacity="0.6"/>
</svg>
