<svg width="13" height="16" viewBox="0 0 13 16" fill="none" xmlns="http://www.w3.org/2000/svg">
<path d="M4 5.1V3C4 1.619 5.119 0.5 6.5 0.5C7.881 0.5 9 1.619 9 3V5.1" stroke="#979797"/>
<path d="M6.5 11.5C7.32843 11.5 8 10.8284 8 10C8 9.17157 7.32843 8.5 6.5 8.5C5.67157 8.5 5 9.17157 5 10C5 10.8284 5.67157 11.5 6.5 11.5Z" stroke="#979797"/>
<path d="M6.5 15.5C9.53757 15.5 12 13.0376 12 10C12 6.96243 9.53757 4.5 6.5 4.5C3.46243 4.5 1 6.96243 1 10C1 13.0376 3.46243 15.5 6.5 15.5Z" stroke="#979797"/>
</svg>
