<svg width="111" height="118" viewBox="0 0 111 118" fill="none" xmlns="http://www.w3.org/2000/svg">
<circle cx="55.5" cy="55.5" r="55.5" fill="white"/>
<path d="M54.2786 13.0283C54.1644 13.0331 54.0438 13.0361 53.929 13.0417C30.914 14.135 12.1866 33.0098 13.0272 55.975C15.9045 77.9628 27.0713 85.8149 35.877 91.5524C44.4007 97.1039 50.7149 100.675 45.1678 113.162C43.2953 117.377 48.032 118.294 50.854 116.29C73.0086 100.41 99.1414 82.5632 97.4895 52.8005C96.8077 41.1396 91.5226 30.819 83.4851 23.611C75.7483 16.6727 65.462 12.619 54.2786 13.0283ZM31.1434 54.9696C30.6664 41.9317 40.8486 30.975 53.8873 30.5001C66.9251 30.0216 77.8811 40.2046 78.3596 53.2438C78.8373 66.281 68.6551 77.2376 55.6172 77.7146C49.2502 77.9488 43.3783 75.6381 38.982 71.6955C34.3748 67.5652 31.3878 61.6418 31.1434 54.9696Z" fill="white"/>
<path d="M54.2786 13.0283C54.1644 13.0331 54.0438 13.0361 53.929 13.0417C30.914 14.135 12.1866 33.0098 13.0272 55.975C15.9045 77.9628 27.0713 85.8149 35.877 91.5524C44.4007 97.1039 50.7149 100.675 45.1678 113.162C43.2953 117.377 48.032 118.294 50.854 116.29C73.0086 100.41 99.1414 82.5632 97.4895 52.8005C96.8077 41.1396 91.5226 30.819 83.4851 23.611C75.7483 16.6727 65.462 12.619 54.2786 13.0283ZM31.1434 54.9696C30.6664 41.9317 40.8486 30.975 53.8873 30.5001C66.9251 30.0216 77.8811 40.2046 78.3596 53.2438C78.8373 66.281 68.6551 77.2376 55.6172 77.7146C49.2502 77.9488 43.3783 75.6381 38.982 71.6955C34.3748 67.5652 31.3878 61.6418 31.1434 54.9696Z" fill="url(#paint0_linear_2443_27176)"/>
<path fill-rule="evenodd" clip-rule="evenodd" d="M68.0913 66.9731C61.1219 74.2186 49.598 74.4431 42.3524 67.4738C35.1069 60.5044 34.8824 48.9805 41.8518 41.7349C48.8211 34.4894 60.3451 34.2649 67.5906 41.2342C74.8362 48.2036 75.0606 59.7276 68.0913 66.9731Z" fill="#484948"/>
<path d="M54.6 45C52.5844 45 50.6513 45.8007 49.226 47.226C47.8007 48.6513 47 50.5844 47 52.6C47 57.673 52.8425 64 54.6 64C56.3575 64 62.2 57.673 62.2 52.6C62.2 50.5844 61.3993 48.6513 59.974 47.226C58.5487 45.8007 56.6156 45 54.6 45ZM54.6 56.4C53.8484 56.4 53.1137 56.1771 52.4888 55.7596C51.8639 55.342 51.3769 54.7486 51.0893 54.0542C50.8016 53.3598 50.7264 52.5958 50.873 51.8587C51.0196 51.1215 51.3816 50.4444 51.913 49.913C52.4444 49.3816 53.1215 49.0196 53.8587 48.873C54.5958 48.7264 55.3598 48.8016 56.0542 49.0893C56.7486 49.3769 57.342 49.8639 57.7596 50.4888C58.1771 51.1137 58.4 51.8484 58.4 52.6C58.4 53.6078 57.9996 54.5744 57.287 55.287C56.5744 55.9996 55.6078 56.4 54.6 56.4Z" fill="white"/>
<defs>
<linearGradient id="paint0_linear_2443_27176" x1="55.282" y1="117.307" x2="55.282" y2="13" gradientUnits="userSpaceOnUse">
<stop stop-color="#44ADE2"/>
<stop offset="1" stop-color="#0087CC"/>
</linearGradient>
</defs>
</svg>
