<svg width="26" height="25" viewBox="0 0 26 25" fill="none" xmlns="http://www.w3.org/2000/svg">
<path fill-rule="evenodd" clip-rule="evenodd" d="M7.16779 0H24.2017C25.197 0 25.9996 0.819269 26 1.81897V22.432C26 23.3739 25.2941 24.1367 24.3887 24.2318H4.4312C2.674 24.1445 2.43789 23.9555 2.43789 23.9555L2.43911 23.9551C1.94658 23.7937 1.34554 23.4886 0.952156 22.9111C0.70792 22.5522 0.512449 22.2097 0.358024 21.8699C0.0463277 21.1055 0 19.8242 0 19.8242V6.62202C0.140609 5.86899 0.605105 4.76891 2.14042 4.77622C3.33803 4.78069 4.31538 4.78516 4.98795 4.78841H4.98836C5.29558 4.78963 5.35938 4.46128 5.36954 4.25524V1.81897C5.36954 0.819269 6.17256 0 7.16779 0ZM5.26266 20.5837C5.29477 20.2867 5.4557 18.7704 5.4557 18.2072H5.4561V6.75206H5.45366L5.45448 6.50742C5.45244 6.07746 5.23218 5.997 5.10864 5.98481H5.09848C5.09848 5.98481 5.07004 5.98481 5.02818 5.98399H5.02696C4.78841 5.98278 3.91591 5.97749 2.66709 5.96977C1.19477 5.96083 1.27726 8.17115 1.27726 8.17115L1.24313 18.8684C1.23988 19.7791 1.4008 20.5333 1.75801 21.355C1.76042 21.3628 1.76273 21.3706 1.76503 21.3783C1.77283 21.4045 1.78064 21.4307 1.79256 21.4587C1.81241 21.5037 1.83243 21.5429 1.85252 21.5823C1.86286 21.6025 1.87323 21.6228 1.88359 21.644C1.88914 21.6554 1.89376 21.6667 1.89838 21.678C1.9039 21.6915 1.90942 21.705 1.9165 21.7188C1.91976 21.7255 1.92369 21.7312 1.92768 21.737C1.93064 21.7413 1.93364 21.7456 1.93642 21.7504C2.11766 22.0959 2.3046 22.3259 2.47894 22.4913C2.61792 22.6051 3.23644 23.0228 4.42348 22.8164C4.53117 22.7823 4.73396 22.6811 4.83027 22.4055C5.07491 21.7525 5.22284 20.8231 5.22284 20.8231L5.22162 20.8239C5.23214 20.7718 5.23988 20.7233 5.2476 20.6749C5.2524 20.6447 5.25721 20.6146 5.26266 20.5837ZM23.1874 22.8867C24.0603 22.8867 24.7642 22.1601 24.7642 21.2603L24.7638 2.81583C24.7638 1.92097 24.0595 1.18867 23.187 1.18867H8.24064C7.36854 1.18867 6.66306 1.92097 6.66306 2.81583V18.8298V18.9379C6.66306 19.0094 6.6594 19.1211 6.65168 19.2496H6.6529C6.6529 19.2496 6.60657 20.1062 6.42776 21.0096L6.41882 21.0503C6.40501 21.1206 6.39078 21.1888 6.37534 21.2583C6.31479 21.5525 6.22498 22.0471 6.20791 22.4112C6.22092 22.6132 6.31357 22.868 6.71183 22.8741C7.23931 22.8814 7.76355 22.8847 8.20447 22.8867H23.1874ZM21.6197 5.3835H9.84801C9.41237 5.3835 9.25063 5.69601 9.2421 5.98861C9.22259 6.50878 9.84842 6.59575 9.84842 6.59575H21.5941C22.4187 6.59575 22.4374 6.23569 22.4374 5.98942C22.4467 5.31726 21.6197 5.3835 21.6197 5.3835ZM21.6197 8.43978H9.84801C9.41237 8.43978 9.25063 8.7527 9.2421 9.04529C9.22259 9.56546 9.84842 9.65243 9.84842 9.65243H21.5941C22.4187 9.65243 22.4374 9.29278 22.4374 9.04611C22.4467 8.37354 21.6197 8.43978 21.6197 8.43978ZM9.74645 11.5106H21.519C21.519 11.5106 22.346 11.4444 22.3362 12.1169C22.3362 12.3632 22.3175 12.7233 21.4934 12.7233H9.74645C9.74645 12.7233 9.12143 12.6363 9.14012 12.1161C9.15028 11.8235 9.31121 11.5106 9.74645 11.5106ZM21.519 14.4659H9.74645C9.31121 14.4659 9.15028 14.7792 9.14012 15.0718C9.12143 15.5916 9.74645 15.6785 9.74645 15.6785H21.4934C22.3175 15.6785 22.3362 15.3181 22.3362 15.0722C22.346 14.3996 21.519 14.4659 21.519 14.4659ZM9.74645 17.5476H21.519C21.519 17.5476 22.346 17.4814 22.3362 18.154C22.3362 18.4002 22.3175 18.7603 21.4934 18.7603H9.74645C9.74645 18.7603 9.12143 18.6741 9.14012 18.1536C9.15028 17.861 9.31121 17.5476 9.74645 17.5476Z" fill="#545456"/>
</svg>
