<svg width="111" height="118" viewBox="0 0 111 118" fill="none" xmlns="http://www.w3.org/2000/svg">
<circle cx="55.5" cy="55.5" r="55.5" fill="white"/>
<path d="M54.2786 13.0283C54.1644 13.0331 54.0438 13.0361 53.929 13.0417C30.914 14.135 12.1866 33.0098 13.0272 55.975C15.9045 77.9628 27.0713 85.8149 35.877 91.5524C44.4007 97.1039 50.7149 100.675 45.1678 113.162C43.2953 117.377 48.032 118.294 50.854 116.29C73.0086 100.41 99.1414 82.5632 97.4895 52.8005C96.8077 41.1396 91.5226 30.8191 83.4851 23.611C75.7483 16.6727 65.462 12.619 54.2786 13.0283ZM31.1434 54.9696C30.6664 41.9317 40.8486 30.975 53.8873 30.5001C66.9251 30.0216 77.8811 40.2046 78.3596 53.2438C78.8373 66.281 68.6551 77.2376 55.6172 77.7146C49.2502 77.9488 43.3783 75.6381 38.982 71.6955C34.3748 67.5652 31.3878 61.6418 31.1434 54.9696Z" fill="white"/>
<path d="M54.2786 13.0283C54.1644 13.0331 54.0438 13.0361 53.929 13.0417C30.914 14.135 12.1866 33.0098 13.0272 55.975C15.9045 77.9628 27.0713 85.8149 35.877 91.5524C44.4007 97.1039 50.7149 100.675 45.1678 113.162C43.2953 117.377 48.032 118.294 50.854 116.29C73.0086 100.41 99.1414 82.5632 97.4895 52.8005C96.8077 41.1396 91.5226 30.8191 83.4851 23.611C75.7483 16.6727 65.462 12.619 54.2786 13.0283ZM31.1434 54.9696C30.6664 41.9317 40.8486 30.975 53.8873 30.5001C66.9251 30.0216 77.8811 40.2046 78.3596 53.2438C78.8373 66.281 68.6551 77.2376 55.6172 77.7146C49.2502 77.9488 43.3783 75.6381 38.982 71.6955C34.3748 67.5652 31.3878 61.6418 31.1434 54.9696Z" fill="url(#paint0_linear_2443_27180)"/>
<path fill-rule="evenodd" clip-rule="evenodd" d="M68.0913 66.9731C61.1219 74.2186 49.598 74.4431 42.3524 67.4738C35.1069 60.5044 34.8824 48.9805 41.8518 41.7349C48.8211 34.4894 60.3451 34.2649 67.5906 41.2342C74.8362 48.2036 75.0606 59.7276 68.0913 66.9731Z" fill="#484948"/>
<path d="M55.4631 59.4506C55.1842 59.4506 54.9545 59.3449 54.774 59.1335C54.61 58.9221 54.528 58.6314 54.528 58.2615C54.528 57.2925 54.692 56.4733 55.0201 55.8039C55.3482 55.1344 55.824 54.4033 56.4474 53.6106C56.9396 52.9764 57.3005 52.4478 57.5302 52.025C57.7599 51.6022 57.8747 51.1266 57.8747 50.5981C57.8747 50.0167 57.6696 49.5586 57.2595 49.2239C56.8658 48.8716 56.3244 48.6954 55.6353 48.6954C55.0447 48.6954 54.4787 48.8363 53.9374 49.1182C53.396 49.3825 52.7644 49.7701 52.0425 50.2809C51.6324 50.5276 51.296 50.6509 51.0336 50.6509C50.7547 50.6509 50.5086 50.5188 50.2953 50.2545C50.0984 49.9726 50 49.6467 50 49.2768C50 48.7659 50.1969 48.3519 50.5906 48.0348C51.2796 47.4006 52.0917 46.9073 53.0268 46.5549C53.962 46.185 54.9053 46 55.8568 46C56.8576 46 57.7435 46.185 58.5145 46.5549C59.302 46.9249 59.909 47.4358 60.3356 48.0876C60.7785 48.7395 61 49.4882 61 50.3338C61 51.2499 60.7949 52.0515 60.3848 52.7385C59.9746 53.408 59.3758 54.1655 58.5884 55.0111C57.9157 55.751 57.4072 56.3764 57.0626 56.8873C56.7345 57.3806 56.5295 57.9444 56.4474 58.5786C56.3982 58.8605 56.2834 59.0807 56.1029 59.2392C55.9389 59.3802 55.7256 59.4506 55.4631 59.4506ZM55.5123 65C54.9873 65 54.5526 64.815 54.2081 64.4451C53.8635 64.0575 53.6913 63.5818 53.6913 63.0181C53.6913 62.4543 53.8635 61.9875 54.2081 61.6175C54.5526 61.2299 54.9873 61.0362 55.5123 61.0362C56.0373 61.0362 56.472 61.2299 56.8166 61.6175C57.1611 61.9875 57.3333 62.4543 57.3333 63.0181C57.3333 63.5818 57.1529 64.0575 56.7919 64.4451C56.4474 64.815 56.0209 65 55.5123 65Z" fill="white"/>
<defs>
<linearGradient id="paint0_linear_2443_27180" x1="55.282" y1="117.307" x2="55.282" y2="13" gradientUnits="userSpaceOnUse">
<stop stop-color="#44ADE2"/>
<stop offset="1" stop-color="#0087CC"/>
</linearGradient>
</defs>
</svg>
