<svg width="31" height="26" viewBox="0 0 31 26" fill="none" xmlns="http://www.w3.org/2000/svg">
<path fill-rule="evenodd" clip-rule="evenodd" d="M28.6077 1.7899C30.9947 4.1769 30.9947 8.06506 28.5949 10.452L28.5941 10.4527L24.2708 14.6991L19.933 10.4639C17.5467 8.06472 17.5462 4.17701 19.9334 1.78991C22.3327 -0.596635 26.2083 -0.596635 28.6077 1.7899ZM29.0734 6.11605L29.0734 6.11456C29.0734 4.83146 28.5775 3.62217 27.6702 2.71489C26.7629 1.80761 25.5536 1.31163 24.2705 1.31163C22.9884 1.31163 21.7788 1.81938 20.8708 2.72739C19.9636 3.63467 19.4676 4.84396 19.4676 6.12706C19.4676 7.40987 19.9633 8.6189 20.8702 9.52611L20.8708 9.52673L24.2703 12.8536L27.6702 9.51423C28.5781 8.60609 29.0855 7.4091 29.0734 6.11605ZM19.3084 6.12706C19.3084 6.70401 19.4056 7.26675 19.5928 7.79565C19.4055 7.2666 19.3083 6.70368 19.3083 6.12654C19.3083 4.80165 19.8207 3.55176 20.7581 2.61435C21.6955 1.67693 22.9454 1.15197 24.2703 1.15197C25.5952 1.15197 26.8451 1.66443 27.7825 2.60185C28.2971 3.11646 28.6837 3.72525 28.9277 4.38892C28.6837 3.72545 28.2972 3.11685 27.7827 2.60237C26.8453 1.66495 25.5954 1.15249 24.2705 1.15249C22.9456 1.15249 21.6957 1.67745 20.7583 2.61487C19.8209 3.55228 19.3084 4.80217 19.3084 6.12706ZM20.0459 10.3517C19.4585 9.76111 19.0195 9.07795 18.7289 8.34921C19.0195 9.07776 19.4584 9.76072 20.0457 10.3512L24.2703 14.4758L28.4825 10.3387C30.1622 8.66786 30.6348 6.24171 29.9047 4.14594C30.6351 6.24183 30.1626 8.66824 28.4826 10.3392L24.2705 14.4763L20.0459 10.3517ZM21.5615 6.11462C21.5615 4.62736 22.7696 3.40571 24.2704 3.40571C25.7722 3.40571 26.9793 4.64087 26.9793 6.12712C26.9793 7.61437 25.7712 8.83602 24.2704 8.83602C22.7686 8.83602 21.5615 7.60086 21.5615 6.11462ZM22.8797 6.12712C22.8797 6.88916 23.5084 7.51785 24.2704 7.51785C25.0308 7.51785 25.6611 6.87832 25.6611 6.11462C25.6611 5.35258 25.0324 4.72388 24.2704 4.72388C23.51 4.72388 22.8797 5.36341 22.8797 6.12712ZM26.82 6.1266C26.82 5.83004 26.7689 5.54414 26.675 5.27769C26.7691 5.54429 26.8202 5.83037 26.8202 6.12712C26.8202 7.52699 25.6828 8.67689 24.2704 8.67689C23.1799 8.67689 22.2534 7.98399 21.8877 7.02386C22.2535 7.98372 23.1799 8.67637 24.2702 8.67637C25.6826 8.67637 26.82 7.52647 26.82 6.1266ZM24.2702 4.56423C24.9321 4.56423 25.503 4.98873 25.7233 5.57798C25.5029 4.989 24.9321 4.56475 24.2704 4.56475C23.4205 4.56475 22.7205 5.27719 22.7205 6.12712C22.7205 6.30464 22.7511 6.47562 22.8071 6.63505C22.7509 6.47547 22.7203 6.30431 22.7203 6.1266C22.7203 5.27667 23.4203 4.56423 24.2702 4.56423ZM24.1918 16.1853C24.0431 16.1853 23.8959 16.2145 23.7585 16.2714C23.6211 16.3283 23.4962 16.4117 23.3911 16.5169C23.2859 16.6221 23.2025 16.7469 23.1456 16.8843C23.0887 17.0217 23.0594 17.1689 23.0595 17.3176V19.7323C23.0595 20.794 22.6377 21.8121 21.887 22.5628C21.1363 23.3135 20.1182 23.7352 19.0565 23.7352C17.9949 23.7352 16.9767 23.3135 16.226 22.5628C15.4753 21.8121 15.0536 20.794 15.0536 19.7323V9.46168C15.0544 8.63805 14.8929 7.82233 14.5783 7.06116C14.2637 6.29998 13.8022 5.60828 13.2201 5.02559C12.638 4.44289 11.9468 3.98064 11.1859 3.66526C10.4251 3.34988 9.6095 3.18754 8.78588 3.18754C7.96225 3.18754 7.1467 3.34988 6.38584 3.66526C5.62499 3.98064 4.93376 4.44289 4.35167 5.02559C3.76958 5.60828 3.30804 6.29998 2.99343 7.06116C2.67883 7.82233 2.51734 8.63805 2.51818 9.46168V14.801C2.51891 15.1008 2.63853 15.3881 2.85082 15.5999C3.0631 15.8117 3.35071 15.9306 3.65056 15.9306C3.95041 15.9306 4.23802 15.8117 4.4503 15.5999C4.66259 15.3881 4.78221 15.1008 4.78294 14.801V9.46168C4.78226 8.93557 4.8853 8.41449 5.08616 7.92824C5.28703 7.44198 5.58177 7.0001 5.95355 6.62784C6.32532 6.25559 6.76683 5.96027 7.25283 5.75879C7.73882 5.5573 8.25977 5.45359 8.78588 5.45359C9.31198 5.45359 9.83293 5.5573 10.3189 5.75879C10.8049 5.96027 11.2464 6.25559 11.6182 6.62784C11.99 7.0001 12.2847 7.44198 12.4856 7.92824C12.6865 8.41449 12.7895 8.93557 12.7888 9.46168V19.7323C12.7888 21.3946 13.4492 22.9888 14.6246 24.1642C15.8 25.3397 17.3942 26 19.0565 26C20.7188 26 22.313 25.3397 23.4884 24.1642C24.6639 22.9888 25.3242 21.3946 25.3242 19.7323V17.3176C25.3242 17.1689 25.2949 17.0217 25.238 16.8843C25.1811 16.7469 25.0977 16.622 24.9926 16.5169C24.8874 16.4117 24.7626 16.3283 24.6252 16.2714C24.4878 16.2145 24.3405 16.1852 24.1918 16.1853ZM3.64903 18.7006C2.92732 18.7006 2.22182 18.9146 1.62174 19.3155C1.02166 19.7165 0.553952 20.2864 0.277766 20.9532C0.00158014 21.6199 -0.0706819 22.3536 0.0701176 23.0615C0.210917 23.7693 0.558455 24.4195 1.06878 24.9299C1.57911 25.4402 2.2293 25.7877 2.93715 25.9285C3.64499 26.0693 4.37869 25.997 5.04546 25.7209C5.71224 25.4447 6.28214 24.977 6.6831 24.3769C7.08406 23.7768 7.29807 23.0713 7.29807 22.3496C7.29702 21.3821 6.91224 20.4546 6.22813 19.7705C5.54403 19.0864 4.61649 18.7016 3.64903 18.7006ZM6.29807 22.3502C6.29795 22.8739 6.14259 23.3859 5.85163 23.8213C5.56055 24.2569 5.14683 24.5965 4.66278 24.797C4.17873 24.9975 3.6461 25.0499 3.13224 24.9477C2.61837 24.8455 2.14636 24.5932 1.77589 24.2227C1.40541 23.8523 1.15312 23.3803 1.0509 22.8664C0.948689 22.3525 1.00115 21.8199 1.20165 21.3359C1.40214 20.8518 1.74168 20.4381 2.17731 20.147C2.61279 19.856 3.12476 19.7007 3.6485 19.7006C4.35092 19.7015 5.02433 19.9809 5.52103 20.4776C6.01775 20.9743 6.29719 21.6478 6.29807 22.3502Z" fill="#545456"/>
</svg>
