<svg width="36" height="36" viewBox="0 0 36 36" fill="none" xmlns="http://www.w3.org/2000/svg">
<circle opacity="0.2" cx="18" cy="18" r="18" fill="#007BB5"/>
<circle cx="18" cy="18" r="12" fill="#007BB5"/>
<g clip-path="url(#clip0_1888_25584)">
<path d="M17.9997 15.334C17.4723 15.334 16.9567 15.4904 16.5182 15.7834C16.0796 16.0764 15.7378 16.4929 15.536 16.9802C15.3342 17.4674 15.2814 18.0036 15.3842 18.5209C15.4871 19.0382 15.7411 19.5133 16.1141 19.8863C16.487 20.2592 16.9622 20.5132 17.4794 20.6161C17.9967 20.719 18.5329 20.6662 19.0202 20.4643C19.5074 20.2625 19.9239 19.9207 20.2169 19.4822C20.5099 19.0436 20.6663 18.5281 20.6663 18.0007C20.6663 17.2934 20.3854 16.6151 19.8853 16.115C19.3852 15.6149 18.7069 15.334 17.9997 15.334Z" fill="white"/>
<path d="M25.3333 17.3333H24.6667C24.5116 15.7981 23.8288 14.3641 22.7346 13.2761C21.6405 12.188 20.2028 11.5132 18.6667 11.3667V10.6667C18.6667 10.4899 18.5964 10.3203 18.4714 10.1953C18.3464 10.0702 18.1768 10 18 10C17.8232 10 17.6536 10.0702 17.5286 10.1953C17.4036 10.3203 17.3333 10.4899 17.3333 10.6667V11.3333C15.7981 11.4884 14.3641 12.1712 13.2761 13.2654C12.188 14.3595 11.5132 15.7972 11.3667 17.3333H10.6667C10.4899 17.3333 10.3203 17.4036 10.1953 17.5286C10.0702 17.6536 10 17.8232 10 18C10 18.1768 10.0702 18.3464 10.1953 18.4714C10.3203 18.5964 10.4899 18.6667 10.6667 18.6667H11.3333C11.4811 20.2079 12.1607 21.6497 13.2555 22.7445C14.3503 23.8393 15.7921 24.5189 17.3333 24.6667V25.3333C17.3333 25.5101 17.4036 25.6797 17.5286 25.8047C17.6536 25.9298 17.8232 26 18 26C18.1768 26 18.3464 25.9298 18.4714 25.8047C18.5964 25.6797 18.6667 25.5101 18.6667 25.3333V24.6667C20.2079 24.5189 21.6497 23.8393 22.7445 22.7445C23.8393 21.6497 24.5189 20.2079 24.6667 18.6667H25.3333C25.5101 18.6667 25.6797 18.5964 25.8047 18.4714C25.9298 18.3464 26 18.1768 26 18C26 17.8232 25.9298 17.6536 25.8047 17.5286C25.6797 17.4036 25.5101 17.3333 25.3333 17.3333ZM18.6667 23.2867V22.6667C18.6667 22.4899 18.5964 22.3203 18.4714 22.1953C18.3464 22.0702 18.1768 22 18 22C17.8232 22 17.6536 22.0702 17.5286 22.1953C17.4036 22.3203 17.3333 22.4899 17.3333 22.6667V23.2867C16.16 23.1379 15.0694 22.6033 14.2331 21.7669C13.3967 20.9306 12.8621 19.84 12.7133 18.6667H13.3333C13.5101 18.6667 13.6797 18.5964 13.8047 18.4714C13.9298 18.3464 14 18.1768 14 18C14 17.8232 13.9298 17.6536 13.8047 17.5286C13.6797 17.4036 13.5101 17.3333 13.3333 17.3333H12.7133C12.8621 16.16 13.3967 15.0694 14.2331 14.2331C15.0694 13.3967 16.16 12.8621 17.3333 12.7133V13.3333C17.3333 13.5101 17.4036 13.6797 17.5286 13.8047C17.6536 13.9298 17.8232 14 18 14C18.1768 14 18.3464 13.9298 18.4714 13.8047C18.5964 13.6797 18.6667 13.5101 18.6667 13.3333V12.7133C19.84 12.8621 20.9306 13.3967 21.7669 14.2331C22.6033 15.0694 23.1379 16.16 23.2867 17.3333H22.6667C22.4899 17.3333 22.3203 17.4036 22.1953 17.5286C22.0702 17.6536 22 17.8232 22 18C22 18.1768 22.0702 18.3464 22.1953 18.4714C22.3203 18.5964 22.4899 18.6667 22.6667 18.6667H23.2867C23.1379 19.84 22.6033 20.9306 21.7669 21.7669C20.9306 22.6033 19.84 23.1379 18.6667 23.2867Z" fill="white"/>
</g>
<defs>
<clipPath id="clip0_1888_25584">
<rect width="16" height="16" fill="white" transform="translate(10 10)"/>
</clipPath>
</defs>
</svg>
