<svg width="116" height="45" viewBox="0 0 116 45" fill="none" xmlns="http://www.w3.org/2000/svg">
<path d="M30.9698 13.49C23.1498 18.67 17.2298 23.79 18.1598 25.15C19.0798 26.51 26.1698 23.41 33.9898 18.24C41.8098 13.06 47.3998 7.77001 46.4798 6.41001C45.5598 5.05001 38.7998 8.32001 30.9798 13.49H30.9698Z" fill="#80C2DC"/>
<path d="M69.0899 8.78001C69.4599 9.92001 69.2099 10.93 68.4999 10.93H55.0299C54.3199 10.93 54.0399 9.92001 54.3599 8.78001L54.6899 7.62001C54.9599 6.67001 55.6299 5.95001 56.1999 5.95001H67.1399C67.7099 5.95001 68.4099 6.67001 68.7099 7.62001L69.0799 8.78001H69.0899Z" fill="#F4CC25"/>
<path d="M65.0603 7.72001H64.0403V6.70001H65.0603V7.72001ZM63.0703 7.72001V6.70001H62.0503V7.72001H63.0203V8.68001H62.0503V7.72001H61.0803V6.70001H60.0603V7.72001H61.0303V8.68001H60.0603V7.72001H59.0903V6.70001H58.0703V7.72001H59.0403V8.68001H58.0703V9.70001H59.0903V8.74001H60.0603V9.70001H61.0803V8.74001H62.0503V9.70001H63.0703V8.74001H64.0403V9.70001H65.0603V8.68001H64.0403V7.72001H63.0703Z" fill="#091119"/>
<path d="M56.0403 11.71C52.6203 11.82 49.6403 12.03 47.3703 12.33C43.1203 12.9 35.1303 19 31.2803 22.43H50.8503C52.5403 18.85 54.2803 15.28 56.0403 11.7V11.71Z" fill="#80C2DC"/>
<path d="M74.5303 11.25C77.9803 11.36 82.0503 11.42 84.3703 11.93C85.6903 12.22 95.6203 17.39 102.1 21.2L82.5303 21.98C79.9003 18.4 77.2203 14.83 74.5303 11.25Z" fill="#80C2DC"/>
<path d="M110.4 1.85003C106.91 -0.919974 59.6298 2.63003 52.1398 3.62003C45.2098 4.54003 30.0598 14.9 26.1298 18.16C-1.67022 20.52 1.84978 27.41 1.84978 35.04C1.84978 37.65 10.8598 37.11 23.5498 37.11H63.8698C93.8798 37.11 114.53 33.98 114.53 29.36C114.53 29.36 113.26 4.14003 110.39 1.86003L110.4 1.85003Z" fill="#FDFDFD"/>
<path d="M114.12 38.51C114.12 39.68 100.72 42.31 99.58 42.31H3.27996C2.13996 42.31 1.20996 41.36 1.20996 40.2V35.1C1.20996 33.93 2.13996 32.99 9.76996 32.99L111.13 29.21C113.92 29.21 114.11 30.16 114.11 31.32V38.51H114.12Z" fill="#091119"/>
<path d="M115.34 36.66C115.34 37.83 101.58 40.46 100.41 40.46H2.11C0.94 40.46 0 39.51 0 38.35V33.25C0 32.08 0.95 31.14 8.61 31.14L111.45 27.36C113.93 27.36 115.34 28.31 115.34 29.47V36.66Z" fill="url(#paint0_linear_108_20183)"/>
<path d="M100.41 40.47C100.82 40.47 103.08 40.17 105.85 39.73C106.11 38.87 106.26 37.96 106.26 37.01C106.26 31.8 102.03 27.57 96.8199 27.57C91.6099 27.57 87.3799 31.8 87.3799 37.01C87.3799 38.23 87.6199 39.39 88.0499 40.46H100.41V40.47Z" fill="#091119"/>
<path d="M21.0031 27.8892C17.4031 27.8892 14.2898 30.0147 12.8485 33.0752L12.0998 35.5436C12.0312 35.9799 12 36.4287 12 36.8837H30C30 31.9283 25.9633 27.8954 21.0031 27.8954V27.8892Z" fill="black"/>
<path d="M28.7152 36.8774C28.7152 41.1348 25.2587 44.5817 21.0036 44.5817C16.7485 44.5817 13.292 41.1348 13.292 36.8774C13.292 32.6201 16.7485 29.1732 21.0036 29.1732C25.2587 29.1732 28.7152 32.6264 28.7152 36.8774Z" fill="url(#paint1_radial_108_20183)"/>
<path d="M21.0033 41.3716C18.5201 41.3716 16.5049 39.3521 16.5049 36.8775C16.5049 34.4029 18.5201 32.3833 21.0033 32.3833C23.4865 32.3833 25.5018 34.3966 25.5018 36.8775C25.5018 39.3583 23.4803 41.3716 21.0033 41.3716Z" fill="url(#paint2_radial_108_20183)"/>
<path style="mix-blend-mode:multiply" d="M21.0033 41.3779C18.5201 41.3779 16.5049 39.3583 16.5049 36.8837C16.5049 34.4091 18.5201 32.3895 21.0033 32.3895C23.4865 32.3895 25.5018 34.4029 25.5018 36.8837C25.5018 39.3645 23.4803 41.3779 21.0033 41.3779Z" fill="url(#paint3_linear_108_20183)"/>
<path d="M21.003 38.1615C20.2918 38.1615 19.7178 37.5881 19.7178 36.8775C19.7178 36.1669 20.298 35.5934 21.003 35.5934C21.7081 35.5934 22.2883 36.1731 22.2883 36.8775C22.2883 37.5819 21.7143 38.1615 21.003 38.1615Z" fill="#1C2426"/>
<path d="M97.0031 28C93.4031 28 90.2898 30.1255 88.8485 33.1861L88.0998 35.6544C88.0312 36.0908 88 36.5395 88 36.9946H106C106 32.0391 101.963 28.0062 97.0031 28.0062V28Z" fill="black"/>
<path d="M104.715 36.9883C104.715 41.2456 101.259 44.6926 97.0036 44.6926C92.7485 44.6926 89.292 41.2456 89.292 36.9883C89.292 32.731 92.7485 29.284 97.0036 29.284C101.259 29.284 104.715 32.7372 104.715 36.9883Z" fill="url(#paint4_radial_108_20183)"/>
<path d="M97.0033 41.4825C94.5201 41.4825 92.5049 39.4629 92.5049 36.9883C92.5049 34.5137 94.5201 32.4941 97.0033 32.4941C99.4865 32.4941 101.502 34.5075 101.502 36.9883C101.502 39.4691 99.4803 41.4825 97.0033 41.4825Z" fill="url(#paint5_radial_108_20183)"/>
<path style="mix-blend-mode:multiply" d="M97.0033 41.4887C94.5201 41.4887 92.5049 39.4691 92.5049 36.9945C92.5049 34.5199 94.5201 32.5004 97.0033 32.5004C99.4865 32.5004 101.502 34.5137 101.502 36.9945C101.502 39.4754 99.4803 41.4887 97.0033 41.4887Z" fill="url(#paint6_linear_108_20183)"/>
<path d="M97.003 38.2724C96.2918 38.2724 95.7178 37.6989 95.7178 36.9883C95.7178 36.2777 96.298 35.7043 97.003 35.7043C97.7081 35.7043 98.2883 36.284 98.2883 36.9883C98.2883 37.6927 97.7143 38.2724 97.003 38.2724Z" fill="#1C2426"/>
<path d="M59.4258 24.2454C58.3648 24.2454 57.5371 23.7363 57.5371 23.0905C57.5371 22.4446 58.3648 21.9355 59.4258 21.9355C60.4868 21.9355 61.3221 22.4446 61.3221 23.0905C61.3221 23.7363 60.4943 24.2454 59.4258 24.2454ZM59.4258 22.2698C58.5831 22.2698 57.8682 22.6421 57.8682 23.0905C57.8682 23.5388 58.5831 23.9111 59.4258 23.9111C60.2686 23.9111 60.9834 23.5388 60.9834 23.0905C60.9834 22.6421 60.2686 22.2698 59.4258 22.2698Z" fill="#C9C9C9"/>
<path d="M61.1495 23.0905C61.1495 23.6376 60.3744 24.0783 59.4263 24.0783C58.4782 24.0783 57.7031 23.6376 57.7031 23.0905C57.7031 22.5434 58.4782 22.1027 59.4263 22.1027C60.3744 22.1027 61.1495 22.5434 61.1495 23.0905Z" fill="url(#paint7_linear_108_20183)"/>
<path d="M61.8414 23.0829C61.8414 23.2805 61.691 23.4324 61.4953 23.4324L57.1987 23.4476C57.0106 23.4476 56.8525 23.2957 56.8525 23.0981C56.8525 22.9005 57.003 22.7486 57.1987 22.7486L61.5104 22.5434C61.6985 22.5434 62.0145 22.665 61.8414 23.0829Z" fill="url(#paint8_linear_108_20183)"/>
<path d="M80.67 23.35C80.67 23.79 80.32 24.14 79.88 24.14H74.33C73.89 24.14 73.54 23.79 73.54 23.35C73.54 22.91 73.89 22.56 74.33 22.56H79.88C80.32 22.56 80.67 22.91 80.67 23.35Z" fill="#2A2A2B"/>
<path d="M3.61035 27.28C3.61035 27.28 11.9804 26.76 16.9504 21.39C13.6404 21.8 4.44035 22.22 3.61035 27.28Z" fill="url(#paint9_linear_108_20183)"/>
<path d="M23.8701 21.81C23.8701 21.81 41.4501 7.13004 57.1601 6.41004C72.8701 5.69004 100.79 5.48004 102.65 5.48004C104.51 5.48004 105.13 6.10004 105.54 9.51004C105.95 12.92 105.13 15.92 101.82 15.92C98.5101 15.92 23.8701 21.81 23.8701 21.81Z" fill="url(#paint10_linear_108_20183)"/>
<path d="M57.2102 7.46004C50.4702 7.77004 43.3202 10.77 37.4202 14.01C37.4102 15.87 37.6602 17.76 38.1102 19.63C43.4302 19.21 49.7702 18.72 56.3702 18.21C56.9302 14.61 57.5102 11.01 58.1602 7.42004C57.8402 7.43004 57.5202 7.45004 57.2102 7.46004Z" fill="url(#paint11_linear_108_20183)"/>
<path d="M86.3804 15.19C87.0604 12.31 87.1004 9.52 87.0404 6.69C80.1704 6.79 72.0904 6.94 64.9604 7.16C64.6204 10.62 64.6004 14.09 64.9204 17.54C72.4904 16.96 79.9504 16.39 86.1704 15.92C86.2404 15.67 86.3104 15.43 86.3704 15.18L86.3804 15.19Z" fill="url(#paint12_linear_108_20183)"/>
<path d="M38.9997 17.4H37.6097C36.4597 17.4 35.2997 18.33 34.9997 19.48C34.7097 20.63 35.3997 21.56 36.5497 21.56H37.9397L38.9997 17.41V17.4Z" fill="#B4B4B4"/>
<path d="M102.54 19.51L87.7197 20.27V21.99L102.54 21.23C102.93 21.21 103.25 20.81 103.25 20.34C103.25 19.87 102.93 19.5 102.54 19.52V19.51Z" fill="#091119"/>
<path d="M110.46 4.02001C109.82 2.81001 109.33 6.69001 109.59 10.36L111.08 23.93C111.23 25.17 112.42 26.05 113.79 25.97C113.79 25.97 112.34 7.56001 110.46 4.02001Z" fill="#AF2D00"/>
<path d="M110.06 14.62L112.32 12.36C111.79 8.67001 111.16 5.33001 110.46 4.02001C109.82 2.81001 109.33 6.69001 109.59 10.36L110.06 14.62Z" fill="white"/>
<path d="M113.05 18.23C112.89 16.8 112.71 15.3 112.52 13.81L110.22 16.11L110.71 20.58L113.05 18.24V18.23Z" fill="white"/>
<defs>
<linearGradient id="paint0_linear_108_20183" x1="57.67" y1="27.36" x2="57.67" y2="90.5" gradientUnits="userSpaceOnUse">
<stop stop-color="#E6E6E6"/>
<stop offset="1" stop-color="white" stop-opacity="0"/>
</linearGradient>
<radialGradient id="paint1_radial_108_20183" cx="0" cy="0" r="1" gradientUnits="userSpaceOnUse" gradientTransform="translate(21.0036 36.8774) scale(7.71161 7.70429)">
<stop offset="0.7" stop-color="#504E51"/>
<stop offset="0.77" stop-color="#484649"/>
<stop offset="0.88" stop-color="#333234"/>
<stop offset="1" stop-color="#141414"/>
</radialGradient>
<radialGradient id="paint2_radial_108_20183" cx="0" cy="0" r="1" gradientUnits="userSpaceOnUse" gradientTransform="translate(21.0033 36.8775) scale(4.49844 4.49417)">
<stop stop-color="white"/>
<stop offset="0.1" stop-color="#DCDCDC"/>
<stop offset="0.19" stop-color="#C5C5C5"/>
<stop offset="0.25" stop-color="#BDBDBD"/>
<stop offset="0.28" stop-color="#C9C9C9"/>
<stop offset="0.37" stop-color="#DEDEDE"/>
<stop offset="0.45" stop-color="#EBEBEB"/>
<stop offset="0.52" stop-color="#F0F0F0"/>
<stop offset="0.68" stop-color="#F0F0F0"/>
<stop offset="0.7" stop-color="#F0F0F0"/>
<stop offset="0.85" stop-color="#EEEEEE"/>
<stop offset="0.9" stop-color="#E7E7E7"/>
<stop offset="0.93" stop-color="#DBDBDB"/>
<stop offset="0.96" stop-color="#CACACA"/>
<stop offset="0.99" stop-color="#B4B4B4"/>
<stop offset="1" stop-color="#A8A8A8"/>
</radialGradient>
<linearGradient id="paint3_linear_108_20183" x1="18.2768" y1="33.4679" x2="23.8357" y2="40.4293" gradientUnits="userSpaceOnUse">
<stop stop-color="white"/>
<stop offset="0.11" stop-color="#FDFDFD"/>
<stop offset="0.16" stop-color="#F6F6F6"/>
<stop offset="0.19" stop-color="#E9E9E9"/>
<stop offset="0.22" stop-color="#D8D8D8"/>
<stop offset="0.24" stop-color="#C2C2C2"/>
<stop offset="0.25" stop-color="#C0C0C0"/>
<stop offset="0.27" stop-color="#D7D7D7"/>
<stop offset="0.3" stop-color="#E9E9E9"/>
<stop offset="0.34" stop-color="#F5F5F5"/>
<stop offset="0.38" stop-color="#FCFCFC"/>
<stop offset="0.49" stop-color="white"/>
<stop offset="0.93" stop-color="white"/>
<stop offset="1" stop-color="white"/>
</linearGradient>
<radialGradient id="paint4_radial_108_20183" cx="0" cy="0" r="1" gradientUnits="userSpaceOnUse" gradientTransform="translate(97.0036 36.9883) scale(7.71161 7.70429)">
<stop offset="0.7" stop-color="#504E51"/>
<stop offset="0.77" stop-color="#484649"/>
<stop offset="0.88" stop-color="#333234"/>
<stop offset="1" stop-color="#141414"/>
</radialGradient>
<radialGradient id="paint5_radial_108_20183" cx="0" cy="0" r="1" gradientUnits="userSpaceOnUse" gradientTransform="translate(97.0033 36.9883) scale(4.49844 4.49417)">
<stop stop-color="white"/>
<stop offset="0.1" stop-color="#DCDCDC"/>
<stop offset="0.19" stop-color="#C5C5C5"/>
<stop offset="0.25" stop-color="#BDBDBD"/>
<stop offset="0.28" stop-color="#C9C9C9"/>
<stop offset="0.37" stop-color="#DEDEDE"/>
<stop offset="0.45" stop-color="#EBEBEB"/>
<stop offset="0.52" stop-color="#F0F0F0"/>
<stop offset="0.68" stop-color="#F0F0F0"/>
<stop offset="0.7" stop-color="#F0F0F0"/>
<stop offset="0.85" stop-color="#EEEEEE"/>
<stop offset="0.9" stop-color="#E7E7E7"/>
<stop offset="0.93" stop-color="#DBDBDB"/>
<stop offset="0.96" stop-color="#CACACA"/>
<stop offset="0.99" stop-color="#B4B4B4"/>
<stop offset="1" stop-color="#A8A8A8"/>
</radialGradient>
<linearGradient id="paint6_linear_108_20183" x1="94.2768" y1="33.5787" x2="99.8357" y2="40.5402" gradientUnits="userSpaceOnUse">
<stop stop-color="white"/>
<stop offset="0.11" stop-color="#FDFDFD"/>
<stop offset="0.16" stop-color="#F6F6F6"/>
<stop offset="0.19" stop-color="#E9E9E9"/>
<stop offset="0.22" stop-color="#D8D8D8"/>
<stop offset="0.24" stop-color="#C2C2C2"/>
<stop offset="0.25" stop-color="#C0C0C0"/>
<stop offset="0.27" stop-color="#D7D7D7"/>
<stop offset="0.3" stop-color="#E9E9E9"/>
<stop offset="0.34" stop-color="#F5F5F5"/>
<stop offset="0.38" stop-color="#FCFCFC"/>
<stop offset="0.49" stop-color="white"/>
<stop offset="0.93" stop-color="white"/>
<stop offset="1" stop-color="white"/>
</linearGradient>
<linearGradient id="paint7_linear_108_20183" x1="59.4263" y1="21.9051" x2="59.4263" y2="24.3898" gradientUnits="userSpaceOnUse">
<stop stop-color="#A8A8A8"/>
<stop offset="0.13" stop-color="#A9A9A9"/>
<stop offset="0.18" stop-color="#B0B0B0"/>
<stop offset="0.21" stop-color="#BCBCBC"/>
<stop offset="0.24" stop-color="#CDCDCD"/>
<stop offset="0.26" stop-color="#E3E3E3"/>
<stop offset="0.27" stop-color="#E9E9E9"/>
<stop offset="0.54" stop-color="#F2F2F2"/>
<stop offset="0.7" stop-color="#DFDFDF"/>
<stop offset="0.75" stop-color="#C5C5C5"/>
<stop offset="0.85" stop-color="#9E9E9E"/>
<stop offset="0.93" stop-color="#858585"/>
<stop offset="0.98" stop-color="#7D7D7D"/>
</linearGradient>
<linearGradient id="paint8_linear_108_20183" x1="59.3704" y1="22.5348" x2="59.3736" y2="23.4314" gradientUnits="userSpaceOnUse">
<stop stop-color="#999999"/>
<stop offset="0.26" stop-color="#EBEBEB"/>
<stop offset="0.69" stop-color="#5C5C5C"/>
</linearGradient>
<linearGradient id="paint9_linear_108_20183" x1="3.61785" y1="24.335" x2="16.9504" y2="24.335" gradientUnits="userSpaceOnUse">
<stop offset="0.01" stop-color="#292929"/>
<stop offset="0.19" stop-color="#787878"/>
<stop offset="0.23" stop-color="#7E7E7E"/>
<stop offset="0.35" stop-color="#8E8E8E"/>
<stop offset="0.4" stop-color="#989898"/>
<stop offset="0.54" stop-color="#B2B2B2"/>
<stop offset="0.69" stop-color="#C5C5C5"/>
<stop offset="0.84" stop-color="#D0D0D0"/>
<stop offset="1" stop-color="#D4D4D4"/>
</linearGradient>
<linearGradient id="paint10_linear_108_20183" x1="64.7538" y1="5.13097" x2="64.7538" y2="20.5324" gradientUnits="userSpaceOnUse">
<stop stop-color="#5F5A5E"/>
<stop offset="0.28" stop-color="#262529"/>
<stop offset="0.48" stop-color="#29272B"/>
<stop offset="0.63" stop-color="#323134"/>
<stop offset="0.76" stop-color="#424144"/>
<stop offset="0.81" stop-color="#4A484B"/>
</linearGradient>
<linearGradient id="paint11_linear_108_20183" x1="47.7901" y1="7.41824" x2="47.7901" y2="19.63" gradientUnits="userSpaceOnUse">
<stop stop-color="#A3DFFA"/>
<stop offset="1" stop-color="#53B8E6"/>
</linearGradient>
<linearGradient id="paint12_linear_108_20183" x1="75.8762" y1="6.6884" x2="75.8762" y2="17.54" gradientUnits="userSpaceOnUse">
<stop stop-color="#A3DFFA"/>
<stop offset="1" stop-color="#53B8E6"/>
</linearGradient>
</defs>
</svg>
