<svg width="48" height="48" viewBox="0 0 48 48" fill="none" xmlns="http://www.w3.org/2000/svg">
<mask id="mask0_772_5859" style="mask-type:alpha" maskUnits="userSpaceOnUse" x="0" y="0" width="48" height="48">
<circle cx="24" cy="24" r="24" fill="white"/>
<circle cx="24" cy="24" r="24" fill="#2E7D32" fill-opacity="0.17"/>
</mask>
<g mask="url(#mask0_772_5859)">
<circle cx="24" cy="24" r="24" fill="white"/>
<circle cx="24" cy="24" r="24" fill="#EF5350" fill-opacity="0.3"/>
</g>
<rect x="10" y="10" width="28" height="28" rx="14" fill="#EF5350"/>
<path d="M31.0833 30.5416L19.3417 18.7999L16.0083 15.4666L14.925 16.4999L17.8083 19.3832L16.5 23.1666V29.8332C16.5 30.0542 16.5878 30.2662 16.7441 30.4225C16.9003 30.5788 17.1123 30.6666 17.3333 30.6666H18.1667C18.3877 30.6666 18.5996 30.5788 18.7559 30.4225C18.9122 30.2662 19 30.0542 19 29.8332V28.9999H27.425L31.3667 32.9416L32.425 31.8832L31.0833 30.5416ZM19.4167 26.4999C19.0851 26.4999 18.7672 26.3682 18.5328 26.1338C18.2984 25.8993 18.1667 25.5814 18.1667 25.2499C18.1667 24.9184 18.2984 24.6004 18.5328 24.366C18.7672 24.1316 19.0851 23.9999 19.4167 23.9999C19.7482 23.9999 20.0661 24.1316 20.3005 24.366C20.535 24.6004 20.6667 24.9184 20.6667 25.2499C20.6667 25.5814 20.535 25.8993 20.3005 26.1338C20.0661 26.3682 19.7482 26.4999 19.4167 26.4999ZM18.1667 22.3332L18.8167 20.3916L20.7583 22.3332H18.1667ZM28.5833 18.5832L29.8333 22.3332H25L27.4333 24.7666C27.75 24.1416 28.475 23.8832 29.1 24.1749C29.725 24.4749 29.9833 25.2249 29.6917 25.8416C29.5667 26.0832 29.3583 26.3082 29.1 26.4332L31.5 28.8332V23.1666L29.7667 18.1666C29.5917 17.6666 29.1167 17.3332 28.5833 17.3332H20L21.25 18.5832H28.5833Z" fill="white"/>
</svg>
