<svg width="32" height="32" viewBox="0 0 32 32" fill="none" xmlns="http://www.w3.org/2000/svg">
    <path d="M4 0V4H0V6.66667H4V10.6667H6.66667V6.66667H10.6667V4H6.66667V0H4ZM12 4V8H8V12H4V25.3333C4 26.8 5.18667 28 6.66667 28H25.3333C26.8133 28 28 26.8133 28 25.3333V24H16C14.5333 24 13.3333 22.8133 13.3333 21.3333V10.6667C13.3333 9.2 14.52 8 16 8H28V6.66667C28 5.2 26.8133 4 25.3333 4H12ZM16 10.6667V21.3333H29.3333V10.6667H16ZM21.3333 14C22.44 14 23.3333 14.8933 23.3333 16C23.3333 17.1067 22.44 18 21.3333 18C20.2267 18 19.3333 17.1067 19.3333 16C19.3333 14.8933 20.2267 14 21.3333 14Z" fill="#007BB5"/>
</svg>
