<svg width="24" height="32" viewBox="0 0 24 32" fill="none" xmlns="http://www.w3.org/2000/svg">
    <rect width="24" height="22" rx="4" fill="#007BB5"/>
    <path fill-rule="evenodd" clip-rule="evenodd" d="M6.99996 17.1113H17C17.4583 17.1113 17.8333 17.4551 17.8333 17.8752C17.8333 18.2954 17.4583 18.6391 17 18.6391H6.99996C6.54163 18.6391 6.16663 18.2954 6.16663 17.8752C6.16663 17.4551 6.54163 17.1113 6.99996 17.1113ZM12 7.18077C11.0833 7.18077 10.3333 7.86827 10.3333 8.70855C10.3333 9.54883 11.0833 10.2363 12 10.2363C12.442 10.2363 12.8659 10.0754 13.1785 9.78885C13.491 9.50234 13.6666 9.11374 13.6666 8.70855C13.6666 8.30336 13.491 7.91476 13.1785 7.62825C12.8659 7.34173 12.442 7.18077 12 7.18077ZM12 3.36133C14.725 3.36133 17.8333 5.24049 17.8333 8.82313C17.8333 11.0995 16.0583 13.4981 12.5083 15.9961C12.2083 16.2099 11.7916 16.2099 11.4916 15.9961C7.94163 13.4905 6.16663 11.0995 6.16663 8.82313C6.16663 5.24049 9.27496 3.36133 12 3.36133Z" fill="white"/>
    <circle cx="12" cy="28" r="4" fill="#007BB5"/>
</svg>
