<svg width="24" height="32" viewBox="0 0 24 32" fill="none" xmlns="http://www.w3.org/2000/svg">
    <rect width="24" height="22" rx="4" fill="#007BB5"/>
    <path d="M12 3.36133C8.77496 3.36133 6.16663 5.7523 6.16663 8.70855C6.16663 11.894 9.84996 16.2863 11.3666 17.9592C11.7 18.3259 12.3083 18.3259 12.6416 17.9592C14.15 16.2863 17.8333 11.894 17.8333 8.70855C17.8333 5.7523 15.225 3.36133 12 3.36133ZM12 10.6183C10.85 10.6183 9.91663 9.76272 9.91663 8.70855C9.91663 7.65438 10.85 6.79883 12 6.79883C13.15 6.79883 14.0833 7.65438 14.0833 8.70855C14.0833 9.76272 13.15 10.6183 12 10.6183Z" fill="white"/>
    <circle cx="12" cy="28" r="4" fill="#007BB5"/>
</svg>
